<svg width="512" height="512" viewBox="0 0 512 512" fill="none" xmlns="http://www.w3.org/2000/svg">
<rect width="512" height="512" fill="white"/>
<mask id="mask0" mask-type="alpha" maskUnits="userSpaceOnUse" x="0" y="0" width="512" height="512">
<circle cx="256" cy="256" r="256" fill="white"/>
</mask>
<g mask="url(#mask0)">
<circle cx="256" cy="256" r="256" fill="#343956"/>
<rect x="65.7883" y="427.827" width="512" height="26" transform="rotate(-45 65.7883 427.827)" fill="#D26022"/>
<path d="M204.68 230L186.76 177.264H114.568L96.648 230H74.888L137.352 51.312H164.744L227.208 230H204.68ZM151.176 71.28H149.896L119.688 158.32H181.384L151.176 71.28Z" fill="#D26022"/>
<path d="M288.183 281.312H361.655C376.503 281.312 388.108 285.493 396.471 293.856C405.004 302.219 409.271 313.397 409.271 327.392C409.271 334.048 408.332 339.68 406.455 344.288C404.578 348.896 402.188 352.736 399.287 355.808C396.386 358.709 393.228 360.928 389.815 362.464C386.402 363.829 383.244 364.768 380.343 365.28V366.816C383.586 366.987 387.17 367.84 391.095 369.376C395.191 370.912 399.031 373.387 402.615 376.8C406.199 380.043 409.186 384.309 411.575 389.6C414.135 394.72 415.415 400.949 415.415 408.288C415.415 415.627 414.22 422.453 411.831 428.768C409.612 435.083 406.455 440.544 402.359 445.152C398.263 449.76 393.399 453.429 387.767 456.16C382.135 458.72 375.991 460 369.335 460H288.183V281.312ZM309.687 441.056H362.679C371.895 441.056 379.148 438.752 384.439 434.144C389.73 429.365 392.375 422.453 392.375 413.408V404.704C392.375 395.659 389.73 388.832 384.439 384.224C379.148 379.445 371.895 377.056 362.679 377.056H309.687V441.056ZM309.687 358.624H359.095C367.628 358.624 374.284 356.491 379.063 352.224C383.842 347.957 386.231 341.813 386.231 333.792V325.088C386.231 317.067 383.842 310.923 379.063 306.656C374.284 302.389 367.628 300.256 359.095 300.256H309.687V358.624Z" fill="#D26022"/>
</g>
</svg>
