<svg width="250" height="42" viewBox="0 0 250 42" fill="none" xmlns="http://www.w3.org/2000/svg">
<g clip-path="url(#clip0)">
<path d="M231.331 36.2372C230.255 37.3128 228.83 38.9304 227.537 40.4062C225.686 38.9888 223.869 37.7214 222.81 36.9209V8.98842C222.858 8.52068 222.758 8.04964 222.525 7.6414C222.291 7.23315 221.936 6.90819 221.509 6.71213V6.55371L227.954 1.81769L228.054 1.92608V34.728C229.605 35.6702 230.239 36.0121 231.281 36.1371L231.331 36.2372Z" fill="#0B67B2"/>
<path d="M201.289 15.959C200.239 18.2353 198.579 19.7028 196.453 19.7028C194.327 19.7028 193.601 19.1275 192.034 17.6266L191.559 18.0936V34.0026C193.96 35.37 194.894 35.8703 195.619 35.8703C196.236 35.8703 196.72 35.5535 197.437 34.8281L197.804 35.1949C195.953 37.0126 194.235 38.8303 192.801 40.4479C190.65 38.8887 188.549 37.4462 186.356 35.9787V19.2359C185.524 18.378 184.509 17.7195 183.387 17.3098L183.337 17.2097L186.873 13.2575C188.624 14.7083 189.924 15.8173 191.759 17.1597C193.301 15.7756 194.385 14.725 195.761 13.3075C196.465 14.0731 197.315 14.6891 198.262 15.1188C199.209 15.5486 200.233 15.7833 201.272 15.809L201.289 15.959Z" fill="#0B67B2"/>
<path d="M145.966 1.19235C144.59 4.32746 142.881 6.19518 140.613 6.19518C139.537 6.19518 137.361 5.1029 135.827 5.1029C135.008 5.0391 134.188 5.22277 133.475 5.63011C132.761 6.03745 132.186 6.64969 131.825 7.38752L131.616 7.17907C132.058 2.85996 134.643 0.842148 137.653 0.842148C139.521 0.842148 141.372 1.98446 143.006 1.98446C144.047 2.00145 145.06 1.65 145.866 0.992233L145.966 1.19235Z" fill="#0B67B2"/>
<path d="M167.178 1.50919C166.948 2.45895 166.518 3.34878 165.917 4.11941C165.316 4.89003 164.558 5.52376 163.693 5.97839V34.5196C164.926 34.7915 166.094 35.3044 167.128 36.0288L162.959 40.4479C161.528 39.1311 159.651 38.4069 157.706 38.4218C155.62 38.4128 153.582 39.0475 151.869 40.2395L151.753 40.0227C152.586 36.3706 155.505 34.2527 157.839 34.0443V21.5372H148.167V35.0198C148.435 35.1801 148.739 35.2717 149.051 35.2867C149.576 35.2867 150.268 34.5946 150.769 33.8775L151.186 34.2444C149.927 35.7619 147.717 38.2884 146.141 40.4312C143.957 38.8734 141.317 38.0872 138.637 38.1966C136.297 38.1424 133.989 38.7369 131.966 39.9143L131.858 39.6475C133.409 35.8537 136.227 33.3522 141.288 33.3522C143.445 33.3595 145.573 33.8376 147.525 34.753V0.258477H148.201V16.6761H157.873V6.23686C156.373 5.95631 154.984 5.25338 153.871 4.21072C155.155 2.96001 156.672 1.33409 157.873 0.041687C159.347 1.35237 161.253 2.07372 163.226 2.06784C164.545 2.08238 165.854 1.83585 167.078 1.34242L167.178 1.50919Z" fill="#0B67B2"/>
<path d="M145.708 6.18683C145.157 7.17906 144.932 8.57986 144.932 11.7983V23.8635C144.932 27.724 142.097 30.9008 138.262 32.0765L138.003 31.9264C138.398 31.532 138.708 31.0605 138.913 30.5413C139.118 30.022 139.215 29.466 139.196 28.908V21.5205H137.845C135.769 21.5205 134.993 22.5628 134.776 23.7051H134.626C134.199 23.3345 133.864 22.8697 133.646 22.3474C133.429 21.825 133.337 21.2594 133.376 20.6951C133.376 18.3187 135.252 16.6344 137.953 16.6344H139.196V13.9829C139.196 9.5304 141.922 7.17906 145.591 6.08678L145.708 6.18683Z" fill="#0B67B2"/>
<path d="M244.747 35.6619V17.3682L241.262 13.9829C240.094 14.7334 239.236 15.1669 238.352 15.7006V32.8603C240.101 34.1459 241.924 35.3264 243.813 36.3956L244.747 35.6619ZM250 33.0687C246.41 35.0971 243.095 37.577 240.136 40.4479C237.943 38.7803 235.25 36.9459 233.115 35.5118V17.8851C235.417 16.6344 237.968 15.2503 240.92 13.516L234.916 7.50426C234.137 6.59949 233.158 5.88865 232.056 5.42808L232.006 5.31968C233.824 4.01895 235.342 2.81827 236.534 1.78435C238.844 4.16903 244.038 9.4637 250 15.5588V33.0687Z" fill="#0B67B2"/>
<path d="M211.995 35.1949V26.5651C211.016 26.2728 209.998 26.1322 208.977 26.1482C206.375 26.1482 205.491 28.1743 205.491 30.8842C205.491 33.8108 206.5 35.9871 208.46 37.2711L211.995 35.1949ZM211.995 25.7896V20.3282C210.002 18.894 208.66 17.9268 206.325 16.3759L206.017 16.5844V25.7563C206.916 25.5174 207.839 25.3776 208.768 25.3394C209.858 25.3299 210.944 25.4702 211.995 25.7563V25.7896ZM220 36.5124L216.723 40.3645C214.963 39.0054 213.621 37.9799 211.37 36.3039C209.102 37.613 207.901 38.4718 204.816 40.4146C203.406 39.6524 202.233 38.5159 201.426 37.1301C200.62 35.7443 200.212 34.163 200.247 32.5601C200.247 29.6251 202.098 27.1487 205.758 25.8063C204.607 24.9366 203.369 24.1878 202.064 23.5717V17.9018C204.829 16.5869 207.488 15.0622 210.019 13.3409C212.437 14.9585 214.255 16.1175 217.248 18.1269V35.0949C218.691 36.1205 219.366 36.404 219.95 36.4457L220 36.5124Z" fill="#0B67B2"/>
<path d="M178.718 23.605C177.359 21.3704 175.708 18.4938 174.616 16.5344L174.199 16.7928V26.4066L178.718 23.605ZM183.437 21.4205L174.182 27.1404V33.8108C176.625 35.3033 177.517 35.8953 178.284 35.8953C179.051 35.8953 179.543 35.2533 180.786 34.0193L181.203 34.4362C179.235 36.3289 177.25 38.255 175.324 40.4146C173.298 38.9387 170.947 37.2711 168.929 35.9454V19.4444C171.622 17.8351 176.041 14.8918 178.234 13.3075C179.677 15.7172 181.386 18.3104 183.437 21.4205Z" fill="#0B67B2"/>
<path d="M123.353 6.67044C122.519 7.54594 121.619 8.5465 120.443 9.93896C119.459 9.10515 118.142 8.16295 116.8 7.13737C117.75 6.12847 118.742 5.07787 119.818 3.75212C120.96 4.74435 122.169 5.75325 123.353 6.67044Z" fill="#0B67B2"/>
<path d="M126.422 36.5707C126.422 36.5707 125.071 38.1216 122.778 40.8565C121.352 39.7309 119.501 38.3551 118.05 37.3795V18.9524C117.45 18.3692 116.718 17.94 115.916 17.7017L115.899 17.5933L119.384 13.6994C120.743 14.75 121.886 15.6088 123.328 16.6094V35.1199C124.258 35.7576 125.299 36.2157 126.397 36.4707L126.422 36.5707Z" fill="#0B67B2"/>
<path d="M115.766 36.5207C115.766 36.5207 114.74 37.6213 112.122 40.8315C110.554 39.5974 109.062 38.5051 107.394 37.3545V19.8446L103.225 17.2931L101.091 19.0108V36.4123L102.6 37.3545C101.649 38.2467 99.8233 39.981 98.9645 40.8315C97.6554 39.7892 95.8877 38.3551 95.8877 38.3551V19.6778L92.1939 17.1347L89.5591 19.1775V36.4123C90.0289 36.7335 90.516 37.0285 91.0183 37.2961C89.7926 38.4551 88.5169 39.6808 87.4329 40.8315C86.3323 39.9393 85.1066 38.9637 84.3145 38.3884V19.6778C82.5968 18.1686 82.0298 17.8434 81.146 17.7517L81.0876 17.6517C82.33 16.4093 83.6975 15.0002 84.7814 13.6994C86.449 15.0002 88.225 16.451 90.1344 17.9101C91.6686 16.7178 93.3946 15.4087 95.4374 13.7411C97.1051 14.9501 99.398 16.551 101.274 17.9101C103.05 16.5094 104.709 15.1669 106.419 13.6494C107.928 14.7 111.271 16.7011 112.656 17.6016V35.1116C113.565 35.775 114.615 36.2201 115.724 36.4123L115.766 36.5207Z" fill="#0B67B2"/>
<path d="M58.0078 6.67044C57.174 7.54594 56.2819 8.5465 55.0979 9.93896C54.1223 9.10515 52.8049 8.16295 51.4625 7.13737C52.413 6.12847 53.4052 5.07787 54.4725 3.75212C55.6148 4.74435 56.8322 5.75325 58.0078 6.67044Z" fill="#0B67B2"/>
<path d="M61.0763 36.5707C61.0763 36.5707 59.7088 38.1216 57.4409 40.8565C56.0067 39.7309 54.164 38.3551 52.7132 37.3795V18.9524C52.112 18.3707 51.38 17.9418 50.5787 17.7017L50.5286 17.5933L54.0056 13.6994C55.3647 14.75 56.507 15.6088 57.9578 16.6094V35.1199C58.8867 35.759 59.9277 36.2172 61.0262 36.4707L61.0763 36.5707Z" fill="#0B67B2"/>
<path d="M16.8429 1.43415C15.4671 4.56092 13.6994 6.43698 11.4315 6.43698C10.3559 6.42031 8.18796 5.32802 6.67043 5.32802C5.85033 5.26494 5.0302 5.44985 4.31651 5.85873C3.60282 6.26762 3.02852 6.8816 2.66816 7.62099L2.39301 7.50425C2.83492 3.18514 5.46975 1.10896 8.47145 1.10896C10.3475 1.10896 12.1986 2.25128 13.8245 2.25128C14.8015 2.23575 15.748 1.90856 16.526 1.31741L16.8429 1.43415Z" fill="#0B67B2"/>
<path d="M73.5 35.5868V26.957C72.5237 26.6655 71.5087 26.525 70.49 26.54C67.8802 26.54 67.0047 28.5662 67.0047 31.2677C67.0047 34.2027 68.0052 36.379 69.9647 37.663L73.5 35.5868ZM73.5 26.1732V20.7201C71.5155 19.2859 70.0981 18.3187 67.7801 16.7678L67.5216 16.9763V26.1482C68.4237 25.9092 69.3491 25.7694 70.2815 25.7313C71.3684 25.7218 72.4514 25.8621 73.5 26.1482V26.1732ZM81.5045 36.9126L78.236 40.7564C76.4767 39.3973 75.1343 38.3718 72.8747 36.7041C70.6067 38.0132 69.4144 38.8637 66.3293 40.8065C64.9173 40.0476 63.7425 38.9132 62.9346 37.5286C62.1268 36.144 61.7174 34.563 61.7517 32.9604C61.7517 30.0254 63.6027 27.5406 67.2631 26.1982C66.1167 25.3281 64.8813 24.5819 63.5777 23.9719V18.3437C66.3395 17.0042 68.9959 15.4572 71.5239 13.7161C73.9419 15.3254 75.7596 16.4927 78.753 18.5022V35.4784C80.1955 36.5124 80.8708 36.7875 81.4545 36.8292L81.5045 36.9126Z" fill="#0B67B2"/>
<path d="M40.6981 34.3361V21.9124H34.0943V35.0615C35.7619 35.9954 36.5957 36.4707 37.5296 36.4707C38.1238 36.3628 38.6692 36.0711 39.0888 35.6369C39.0888 35.6369 40.1144 34.8031 40.6981 34.3361V34.3361ZM25.206 17.0263V7.02065C25.206 7.02065 22.2209 4.86943 20.6867 3.74379L18.4021 5.06954V17.0263H25.206ZM33.4273 34.8531V5.00284L31.0343 6.42031V34.1277C31.8508 34.3022 32.6513 34.5448 33.4273 34.8531V34.8531ZM40.6981 17.0263V7.09569C38.6581 6.62317 36.8525 5.4411 35.6035 3.76047L34.0943 4.71101V17.0263H40.6981ZM50.5286 36.2622C50.5286 36.2622 47.602 39.0054 45.7426 40.8565C44.075 39.339 41.6736 37.5213 39.6641 35.9204C38.1383 37.0627 34.3528 39.8226 33.0604 40.9232C30.8767 39.3551 28.244 38.536 25.5561 38.5885C23.6912 38.5769 21.8713 39.1612 20.3615 40.2561L20.2531 39.9893C21.1766 37.5935 22.9605 35.6283 25.256 34.4779V21.9708H18.4021V35.3117C18.4021 38.847 16.1175 40.9816 12.4237 40.9816C9.83057 40.9816 7.42087 39.6808 4.91945 39.6808C2.41804 39.6808 1.30074 40.3896 0.34186 41.5485L0 41.4068C0.208451 37.3879 2.34299 34.9114 6.2869 34.9114C8.83834 34.9114 11.6149 36.1538 14.3498 36.1538C16.7678 36.1538 17.7267 35.32 17.7267 32.8853V5.43642C16.5344 6.10346 16.0591 6.42865 15.2253 6.88724V26.3316C15.2253 30.5006 11.6316 32.5851 7.52927 33.002L7.50425 32.8853C8.5882 32.2099 9.42201 30.5256 9.42201 28.3077V21.9124H8.5215C6.44532 21.9124 5.67822 22.9964 5.46143 24.147L5.30301 24.097C4.86642 23.7297 4.52152 23.2656 4.29572 22.7416C4.06992 22.2176 3.96944 21.6482 4.00227 21.0786C4.00227 18.7106 5.92836 17.0263 8.62989 17.0263H9.40533V14.1163C9.40533 10.4309 11.7483 8.19631 15.0752 6.27022L25.5728 0.183441C27.6157 1.66762 30.2088 3.55202 32.335 5.00284L40.4396 0.341864C41.8571 2.00948 43.3496 3.20182 46.0011 3.20182C47.135 3.22379 48.264 3.04598 49.3363 2.67652L49.4447 2.83494C49.3237 3.7504 48.9928 4.62553 48.4779 5.39208C47.963 6.15863 47.278 6.79587 46.4763 7.25411V34.2277C48.1856 35.3367 49.4614 36.1371 50.4786 36.1538L50.5286 36.2622Z" fill="#0B67B2"/>
</g>
<defs>
<clipPath id="clip0">
<rect width="250" height="41.5069" fill="white"/>
</clipPath>
</defs>
</svg>
