<svg width="500" height="84" viewBox="0 0 500 84" fill="none" xmlns="http://www.w3.org/2000/svg">
<g clip-path="url(#clip0)">
<path d="M462.662 72.4744C460.511 74.6256 457.659 77.8608 455.075 80.8125C451.373 77.9775 447.737 75.4428 445.619 73.8419V17.9769C445.715 17.0414 445.516 16.0993 445.05 15.2828C444.583 14.4663 443.873 13.8164 443.018 13.4243V13.1074L455.908 3.63541L456.109 3.8522V69.456C459.21 71.3404 460.478 72.0242 462.562 72.2743L462.662 72.4744Z" fill="#0B67B2"/>
<path d="M402.578 31.9181C400.477 36.4707 397.158 39.4057 392.906 39.4057C388.654 39.4057 387.203 38.255 384.068 35.2533L383.117 36.1872V68.0052C387.92 70.7401 389.788 71.7407 391.238 71.7407C392.472 71.7407 393.44 71.107 394.874 69.6562L395.607 70.3899C391.905 74.0253 388.47 77.6607 385.602 80.8959C381.299 77.7774 377.097 74.8925 372.711 71.9575V38.4718C371.048 36.7561 369.019 35.4391 366.774 34.6196L366.674 34.4195L373.745 26.515C377.247 29.4167 379.849 31.6346 383.517 34.3195C386.602 31.5512 388.77 29.45 391.522 26.6151C392.929 28.1462 394.631 29.3782 396.524 30.2377C398.418 31.0972 400.466 31.5666 402.545 31.6179L402.578 31.9181Z" fill="#0B67B2"/>
<path d="M291.932 2.38471C289.181 8.65493 285.762 12.3904 281.226 12.3904C279.075 12.3904 274.722 10.2058 271.654 10.2058C270.016 10.0782 268.377 10.4455 266.949 11.2602C265.522 12.0749 264.373 13.2994 263.649 14.7751L263.232 14.3582C264.116 5.71993 269.286 1.68431 275.306 1.68431C279.041 1.68431 282.744 3.96894 286.012 3.96894C288.093 4.00292 290.119 3.30001 291.732 1.98448L291.932 2.38471Z" fill="#0B67B2"/>
<path d="M334.356 3.01839C333.896 4.91792 333.036 6.69758 331.834 8.23883C330.632 9.78008 329.116 11.0475 327.386 11.9568V69.0391C329.852 69.583 332.187 70.6087 334.256 72.0575L325.918 80.8959C323.056 78.2623 319.301 76.8139 315.412 76.8436C311.24 76.8255 307.163 78.0951 303.739 80.479L303.505 80.0454C305.173 72.7412 311.01 68.5055 315.679 68.0886V43.0744H296.335V70.0397C296.871 70.3601 297.478 70.5434 298.102 70.5733C299.153 70.5733 300.537 69.1892 301.538 67.7551L302.371 68.4888C299.853 71.5239 295.434 76.5767 292.282 80.8625C287.915 77.7469 282.634 76.1744 277.274 76.3933C272.595 76.2848 267.977 77.4739 263.933 79.8286L263.716 79.295C266.818 71.7073 272.454 66.7045 282.577 66.7045C286.889 66.7191 291.146 67.6752 295.05 69.5061V0.516968H296.401V33.3522H315.746V12.4737C312.746 11.9126 309.969 10.5068 307.741 8.42145C310.309 5.92003 313.344 2.66819 315.746 0.0833893C318.695 2.70476 322.506 4.14745 326.452 4.13569C329.09 4.16478 331.709 3.67171 334.156 2.68486L334.356 3.01839Z" fill="#0B67B2"/>
<path d="M291.415 12.3737C290.314 14.3582 289.864 17.1597 289.864 23.5967V47.7271C289.864 55.4481 284.194 61.8017 276.523 64.1531L276.006 63.8529C276.797 63.0641 277.416 62.1211 277.827 61.0825C278.237 60.044 278.429 58.9321 278.391 57.8161V43.0411H275.69C271.537 43.0411 269.986 45.1256 269.553 47.4102H269.253C268.398 46.669 267.727 45.7394 267.293 44.6947C266.859 43.65 266.673 42.5188 266.751 41.3901C266.751 36.6375 270.503 33.2689 275.906 33.2689H278.391V27.9659C278.391 19.0608 283.844 14.3582 291.182 12.1736L291.415 12.3737Z" fill="#0B67B2"/>
<path d="M489.494 71.3238V34.7364L482.523 27.9659C480.189 29.4667 478.471 30.3339 476.703 31.4011V65.7206C480.201 68.2918 483.849 70.6529 487.626 72.7913L489.494 71.3238ZM500 66.1375C492.821 70.1942 486.191 75.154 480.272 80.8958C475.886 77.5606 470.5 73.8919 466.231 71.0236V35.7703C470.833 33.2689 475.936 30.5006 481.84 27.032L469.833 15.0085C468.275 13.199 466.316 11.7773 464.113 10.8562L464.013 10.6394C467.648 8.03789 470.683 5.63653 473.068 3.5687C477.687 8.33806 488.077 18.9274 500 31.1176V66.1375Z" fill="#0B67B2"/>
<path d="M423.99 70.3899V53.1301C422.032 52.5456 419.996 52.2644 417.953 52.2963C412.751 52.2963 410.983 56.3486 410.983 61.7683C410.983 67.6217 413.001 71.9741 416.92 74.5422L423.99 70.3899ZM423.99 51.5792V40.6564C420.005 37.7881 417.32 35.8537 412.65 32.7519L412.033 33.1688V51.5125C413.832 51.0347 415.677 50.7551 417.537 50.6787C419.716 50.6598 421.887 50.9404 423.99 51.5125V51.5792ZM439.999 73.0247L433.446 80.7291C429.927 78.0109 427.242 75.9597 422.74 72.6078C418.204 75.226 415.802 76.9436 409.632 80.8291C406.811 79.3049 404.465 77.0319 402.853 74.2603C401.241 71.4887 400.424 68.326 400.494 65.1202C400.494 59.2502 404.196 54.2974 411.516 51.6126C409.214 49.8733 406.738 48.3756 404.129 47.1434V35.8036C409.657 33.1739 414.976 30.1244 420.038 26.6818C424.874 29.917 428.509 32.2349 434.496 36.2539V70.1898C437.381 72.2409 438.732 72.8079 439.899 72.8913L439.999 73.0247Z" fill="#0B67B2"/>
<path d="M357.436 47.2101C354.718 42.7409 351.416 36.9876 349.231 33.0688L348.397 33.5857V52.8133L357.436 47.2101ZM366.875 42.841L348.364 54.2808V67.6217C353.25 70.6067 355.035 71.7907 356.569 71.7907C358.103 71.7907 359.087 70.5066 361.572 68.0386L362.405 68.8724C358.47 72.6579 354.501 76.51 350.649 80.8292C346.596 77.8775 341.894 74.5423 337.858 71.8908V38.8887C343.245 35.6702 352.083 29.7836 356.469 26.6151C359.354 31.4345 362.772 36.6208 366.875 42.841Z" fill="#0B67B2"/>
<path d="M246.706 13.3409C245.039 15.0919 243.238 17.093 240.887 19.8779C238.919 18.2103 236.284 16.3259 233.599 14.2748C235.5 12.257 237.485 10.1558 239.636 7.50426C241.92 9.48872 244.338 11.5065 246.706 13.3409Z" fill="#0B67B2"/>
<path d="M252.843 73.1415C252.843 73.1415 250.142 76.2432 245.556 81.713C242.704 79.4617 239.002 76.7102 236.1 74.7591V37.9048C234.9 36.7383 233.436 35.88 231.831 35.4034L231.798 35.1866L238.769 27.3989C241.487 29.5001 243.771 31.2177 246.656 33.2188V70.2398C248.516 71.5152 250.597 72.4314 252.793 72.9414L252.843 73.1415Z" fill="#0B67B2"/>
<path d="M231.531 73.0414C231.531 73.0414 229.48 75.2427 224.244 81.663C221.109 79.1949 218.124 77.0103 214.788 74.709V39.6892L206.45 34.5863L202.181 38.0216V72.8246L205.2 74.709C203.299 76.4934 199.646 79.962 197.929 81.663C195.311 79.5784 191.775 76.7102 191.775 76.7102V39.3557L184.388 34.2694L179.118 38.3551V72.8246C180.058 73.4669 181.032 74.0571 182.036 74.5923C179.585 76.9103 177.034 79.3617 174.866 81.663C172.665 79.8786 170.213 77.9275 168.629 76.7769V39.3557C165.194 36.3373 164.06 35.6869 162.292 35.5035L162.175 35.3034C164.66 32.8186 167.395 30.0004 169.563 27.3989C172.898 30.0004 176.45 32.902 180.269 35.8203C183.337 33.4356 186.789 30.8175 190.875 27.4823C194.21 29.9003 198.796 33.1021 202.548 35.8203C206.1 33.0187 209.419 30.3339 212.837 27.2988C215.856 29.4 222.543 33.4023 225.311 35.2033V70.2232C227.13 71.5501 229.23 72.4402 231.448 72.8246L231.531 73.0414Z" fill="#0B67B2"/>
<path d="M116.016 13.3409C114.348 15.0919 112.564 17.093 110.196 19.8779C108.245 18.2103 105.61 16.3259 102.925 14.2748C104.826 12.257 106.811 10.1558 108.945 7.50426C111.23 9.48872 113.664 11.5065 116.016 13.3409Z" fill="#0B67B2"/>
<path d="M122.153 73.1415C122.153 73.1415 119.418 76.2432 114.882 81.713C112.013 79.4617 108.328 76.7102 105.426 74.7591V37.9048C104.224 36.7415 102.76 35.8837 101.157 35.4034L101.057 35.1866L108.011 27.3989C110.729 29.5001 113.014 31.2177 115.916 33.2188V70.2398C117.773 71.5179 119.855 72.4344 122.052 72.9414L122.153 73.1415Z" fill="#0B67B2"/>
<path d="M33.6857 2.86829C30.9342 9.12184 27.3988 12.874 22.8629 12.874C20.7117 12.8406 16.3759 10.656 13.3409 10.656C11.7007 10.5299 10.0604 10.8997 8.63302 11.7175C7.20564 12.5352 6.05704 13.7632 5.33632 15.242L4.78601 15.0085C5.66984 6.37028 10.9395 2.21793 16.9429 2.21793C20.695 2.21793 24.3971 4.50255 27.649 4.50255C29.603 4.47149 31.496 3.81712 33.052 2.63483L33.6857 2.86829Z" fill="#0B67B2"/>
<path d="M147 71.1737V53.9139C145.047 53.3311 143.017 53.0499 140.98 53.0801C135.76 53.0801 134.009 57.1324 134.009 62.5355C134.009 68.4055 136.01 72.7579 139.929 75.326L147 71.1737ZM147 52.3464V41.4402C143.031 38.5719 140.196 36.6375 135.56 33.5357L135.043 33.9526V52.2963C136.847 51.8184 138.698 51.5388 140.563 51.4625C142.737 51.4437 144.903 51.7243 147 52.2963V52.3464ZM163.009 73.8252L156.472 81.5129C152.953 78.7947 150.268 76.7435 145.749 73.4083C141.213 76.0264 138.829 77.7274 132.658 81.6129C129.834 80.0952 127.485 77.8264 125.869 75.0572C124.254 72.2879 123.435 69.126 123.503 65.9207C123.503 60.0507 127.205 55.0812 134.526 52.3964C132.233 50.6563 129.763 49.1638 127.155 47.9439V36.6875C132.679 34.0083 137.992 30.9144 143.048 27.4322C147.884 30.6507 151.519 32.9854 157.506 37.0043V70.9569C160.391 73.0247 161.742 73.5751 162.909 73.6584L163.009 73.8252Z" fill="#0B67B2"/>
<path d="M81.3961 68.6723V43.8248H68.1886V70.1231C71.5239 71.9908 73.1915 72.9413 75.0592 72.9413C76.2476 72.7256 77.3383 72.1423 78.1776 71.2737C78.1776 71.2737 80.2288 69.6061 81.3961 68.6723V68.6723ZM50.4119 34.0526V14.0413C50.4119 14.0413 44.4419 9.73886 41.3734 7.48758L36.8042 10.1391V34.0526H50.4119ZM66.8546 69.7062V10.0057L62.0685 12.8406V68.2554C63.7016 68.6044 65.3025 69.0897 66.8546 69.7062V69.7062ZM81.3961 34.0526V14.1914C77.3163 13.2463 73.705 10.8822 71.207 7.52094L68.1886 9.42201V34.0526H81.3961ZM101.057 72.5244C101.057 72.5244 95.204 78.0109 91.4852 81.713C88.15 78.6779 83.3472 75.0425 79.3283 71.8407C76.2766 74.1253 68.7056 79.6451 66.1208 81.8464C61.7534 78.7102 56.4881 77.0721 51.1123 77.1771C47.3824 77.1539 43.7425 78.3224 40.7231 80.5123L40.5063 79.9787C42.3532 75.187 45.921 71.2566 50.512 68.9557V43.9416H36.8042V70.6234C36.8042 77.694 32.2349 81.9631 24.8474 81.9631C19.6611 81.9631 14.8417 79.3616 9.83891 79.3616C4.83607 79.3616 2.60147 80.7791 0.683721 83.0971L0 82.8136C0.416903 74.7757 4.68599 69.8229 12.5738 69.8229C17.6767 69.8229 23.2298 72.3077 28.6996 72.3077C33.5357 72.3077 35.4534 70.64 35.4534 65.7706V10.8728C33.0687 12.2069 32.1182 12.8573 30.4506 13.7745V52.6632C30.4506 61.0012 23.2632 65.1703 15.0585 66.0041L15.0085 65.7706C17.1764 64.4198 18.844 61.0513 18.844 56.6154V43.8248H17.043C12.8906 43.8248 11.3564 45.9927 10.9229 48.294L10.606 48.194C9.73284 47.4593 9.04305 46.5312 8.59145 45.4832C8.13985 44.4353 7.93889 43.2965 8.00454 42.1572C8.00454 37.4212 11.8567 34.0526 17.2598 34.0526H18.8107V28.2327C18.8107 20.8618 23.4966 16.3926 30.1504 12.5404L51.1457 0.366882C55.2313 3.33523 60.4176 7.10403 64.67 10.0057L80.8792 0.683729C83.7141 4.01895 86.6991 6.40364 92.0021 6.40364C94.27 6.44758 96.528 6.09196 98.6726 5.35304L98.8894 5.66989C98.6473 7.5008 97.9856 9.25106 96.9559 10.7842C95.9261 12.3173 94.5561 13.5917 92.9527 14.5082V68.4555C96.3713 70.6734 98.9227 72.2743 100.957 72.3077L101.057 72.5244Z" fill="#0B67B2"/>
</g>
<defs>
<clipPath id="clip0">
<rect width="500" height="83.0137" fill="white"/>
</clipPath>
</defs>
</svg>
