<svg width="750" height="125" viewBox="0 0 750 125" fill="none" xmlns="http://www.w3.org/2000/svg">
<g clip-path="url(#clip0)">
<path d="M693.993 108.712C690.766 111.938 686.489 116.791 682.612 121.219C677.059 116.966 671.606 113.164 668.429 110.763V26.9653C668.573 25.5621 668.274 24.149 667.574 22.9242C666.874 21.6995 665.809 20.7246 664.527 20.1364V19.6612L683.863 5.45311L684.163 5.77829V104.184C688.815 107.011 690.716 108.036 693.843 108.411L693.993 108.712Z" fill="#0B67B2"/>
<path d="M603.867 47.8771C600.715 54.706 595.738 59.1085 589.359 59.1085C582.98 59.1085 580.804 57.3825 576.101 52.88L574.676 54.2808V102.008C581.88 106.11 584.681 107.611 586.858 107.611C588.709 107.611 590.159 106.66 592.311 104.484L593.411 105.585C587.858 111.038 582.705 116.491 578.403 121.344C571.949 116.666 565.646 112.339 559.067 107.936V57.7077C556.573 55.1341 553.528 53.1586 550.162 51.9294L550.012 51.6293L560.618 39.7726C565.871 44.125 569.773 47.4519 575.276 51.4792C579.904 47.3268 583.155 44.175 587.283 39.9226C589.394 42.2192 591.946 44.0673 594.787 45.3565C597.627 46.6458 600.699 47.3499 603.817 47.4269L603.867 47.8771Z" fill="#0B67B2"/>
<path d="M437.898 3.57704C433.771 12.9824 428.643 18.5855 421.839 18.5855C418.612 18.5855 412.083 15.3087 407.481 15.3087C405.023 15.1173 402.565 15.6683 400.424 16.8903C398.283 18.1123 396.559 19.9491 395.474 22.1626L394.849 21.5372C396.175 8.57987 403.929 2.52644 412.959 2.52644C418.562 2.52644 424.115 5.95339 429.018 5.95339C432.14 6.00436 435.179 4.94999 437.598 2.9767L437.898 3.57704Z" fill="#0B67B2"/>
<path d="M501.534 4.52757C500.844 7.37688 499.554 10.0464 497.751 12.3582C495.948 14.6701 493.674 16.5713 491.078 17.9352V103.559C494.778 104.374 498.281 105.913 501.384 108.086L488.877 121.344C484.584 117.393 478.952 115.221 473.118 115.265C466.86 115.238 460.745 117.143 455.608 120.718L455.258 120.068C457.759 109.112 466.514 102.758 473.518 102.133V64.6116H444.502V105.06C445.307 105.54 446.217 105.815 447.153 105.86C448.729 105.86 450.806 103.784 452.306 101.633L453.557 102.733C449.78 107.286 443.151 114.865 438.424 121.294C431.872 116.62 423.951 114.262 415.911 114.59C408.893 114.427 401.966 116.211 395.899 119.743L395.574 118.942C400.227 107.561 408.682 100.057 423.865 100.057C430.334 100.079 436.719 101.513 442.576 104.259V0.775445H444.602V50.0284H473.618V18.7106C469.119 17.8689 464.954 15.7601 461.612 12.6322C465.464 8.88004 470.016 4.00227 473.618 0.125076C478.042 4.05714 483.759 6.22117 489.678 6.20352C493.636 6.24717 497.563 5.50756 501.234 4.02729L501.534 4.52757Z" fill="#0B67B2"/>
<path d="M437.123 18.5605C435.472 21.5372 434.796 25.7396 434.796 35.3951V71.5906C434.796 83.1721 426.292 92.7025 414.785 96.2295L414.01 95.7793C415.195 94.5961 416.125 93.1816 416.74 91.6238C417.355 90.0659 417.644 88.3981 417.587 86.7241V64.5616H413.534C407.306 64.5616 404.979 67.6884 404.329 71.1153H403.879C402.597 70.0035 401.591 68.6091 400.939 67.0421C400.288 65.475 400.01 63.7781 400.127 62.0852C400.127 54.9561 405.755 49.9033 413.859 49.9033H417.587V41.9488C417.587 28.5912 425.766 21.5372 436.772 18.2603L437.123 18.5605Z" fill="#0B67B2"/>
<path d="M734.241 106.986V52.1045L723.785 41.9488C720.283 44.2 717.707 45.5008 715.055 47.1017V98.5809C720.302 102.438 725.773 105.979 731.44 109.187L734.241 106.986ZM750 99.2062C739.231 105.291 729.286 112.731 720.408 121.344C713.83 116.341 705.75 110.838 699.346 106.535V53.6554C706.25 49.9033 713.905 45.7509 722.76 40.548L704.749 22.5127C702.412 19.7985 699.474 17.6659 696.169 16.2842L696.019 15.959C701.473 12.0568 706.025 8.45478 709.602 5.35303C716.531 12.5071 732.115 28.3911 750 46.6764V99.2062Z" fill="#0B67B2"/>
<path d="M635.985 105.585V79.6952C633.049 78.8184 629.995 78.3966 626.93 78.4444C619.126 78.4444 616.474 84.5229 616.474 92.6525C616.474 101.432 619.501 107.961 625.379 111.813L635.985 105.585ZM635.985 77.3688V60.9846C630.007 56.6821 625.98 53.7805 618.976 49.1278L618.05 49.7532V77.2688C620.748 76.5521 623.516 76.1327 626.305 76.0181C629.574 75.9897 632.831 76.4106 635.985 77.2688V77.3688ZM659.999 109.537L650.168 121.094C644.89 117.016 640.863 113.94 634.109 108.912C627.305 112.839 623.703 115.415 614.448 121.244C610.217 118.957 606.698 115.548 604.279 111.39C601.861 107.233 600.636 102.489 600.74 97.6803C600.74 88.8754 606.294 81.4461 617.275 77.4189C613.821 74.8099 610.107 72.5634 606.193 70.7151V53.7054C614.486 49.7608 622.464 45.1865 630.057 40.0227C637.311 44.8754 642.764 48.3524 651.744 54.3808V105.285C656.072 108.361 658.098 109.212 659.849 109.337L659.999 109.537Z" fill="#0B67B2"/>
<path d="M536.154 70.8151C532.076 64.1113 527.124 55.4815 523.847 49.6031L522.596 50.3786V79.2199L536.154 70.8151ZM550.312 64.2614L522.546 81.4212V101.432C529.875 105.91 532.552 107.686 534.853 107.686C537.154 107.686 538.63 105.76 542.357 102.058L543.608 103.309C537.705 108.987 531.751 114.765 525.973 121.244C519.895 116.816 512.841 111.813 506.787 107.836V58.3331C514.867 53.5053 528.124 44.6753 534.703 39.9226C539.03 47.1517 544.158 54.9311 550.312 64.2614Z" fill="#0B67B2"/>
<path d="M370.06 20.0113C367.558 22.6378 364.857 25.6395 361.33 29.8169C358.378 27.3155 354.426 24.4889 350.399 21.4121C353.25 18.3854 356.227 15.2336 359.454 11.2564C362.881 14.2331 366.508 17.2598 370.06 20.0113Z" fill="#0B67B2"/>
<path d="M379.265 109.712C379.265 109.712 375.213 114.365 368.334 122.569C364.056 119.193 358.503 115.065 354.151 112.139V56.8572C352.351 55.1075 350.153 53.82 347.747 53.1051L347.697 52.7799L358.153 41.0983C362.23 44.2501 365.657 46.8265 369.985 49.8282V105.36C372.774 107.273 375.896 108.647 379.19 109.412L379.265 109.712Z" fill="#0B67B2"/>
<path d="M347.297 109.562C347.297 109.562 344.22 112.864 336.366 122.494C331.663 118.792 327.185 115.515 322.183 112.064V59.5338L309.676 51.8794L303.272 57.0323V109.237L307.799 112.064C304.948 114.74 299.47 119.943 296.893 122.494C292.966 119.368 287.663 115.065 287.663 115.065V59.0335L276.582 51.4041L268.677 57.5326V109.237C270.087 110.2 271.548 111.086 273.055 111.888C269.378 115.365 265.551 119.042 262.299 122.494C258.997 119.818 255.32 116.891 252.943 115.165V59.0335C247.79 54.5059 246.089 53.5304 243.438 53.2552L243.263 52.955C246.99 49.2279 251.092 45.0005 254.344 41.0983C259.347 45.0005 264.675 49.353 270.403 53.7305C275.006 50.1534 280.184 46.2262 286.312 41.2234C291.315 44.8504 298.194 49.6532 303.822 53.7305C309.15 49.5281 314.128 45.5008 319.256 40.9482C323.784 44.1 333.814 50.1034 337.967 52.8049V105.335C340.695 107.325 343.844 108.66 347.172 109.237L347.297 109.562Z" fill="#0B67B2"/>
<path d="M174.024 20.0113C171.522 22.6378 168.846 25.6395 165.294 29.8169C162.367 27.3155 158.415 24.4889 154.387 21.4121C157.239 18.3854 160.216 15.2336 163.418 11.2564C166.845 14.2331 170.497 17.2598 174.024 20.0113Z" fill="#0B67B2"/>
<path d="M183.229 109.712C183.229 109.712 179.126 114.365 172.323 122.569C168.02 119.193 162.492 115.065 158.14 112.139V56.8572C156.336 55.1122 154.14 53.8255 151.736 53.1051L151.586 52.7799L162.017 41.0983C166.094 44.2501 169.521 46.8265 173.874 49.8282V105.36C176.66 107.277 179.783 108.652 183.079 109.412L183.229 109.712Z" fill="#0B67B2"/>
<path d="M50.5286 4.30244C46.4013 13.6828 41.0983 19.3109 34.2944 19.3109C31.0676 19.2609 24.5639 15.9841 20.0113 15.9841C17.551 15.7948 15.0907 16.3495 12.9496 17.5762C10.8085 18.8029 9.08562 20.6448 8.00455 22.863L7.17908 22.5128C8.50483 9.55542 16.4093 3.32689 25.4144 3.32689C31.0426 3.32689 36.5957 6.75383 41.4735 6.75383C44.4045 6.70724 47.244 5.72568 49.5781 3.95224L50.5286 4.30244Z" fill="#0B67B2"/>
<path d="M220.5 106.761V80.8709C217.571 79.9966 214.526 79.5749 211.47 79.6201C203.64 79.6201 201.014 85.6986 201.014 93.8032C201.014 102.608 204.016 109.137 209.894 112.989L220.5 106.761ZM220.5 78.5195V62.1603C214.547 57.8578 210.294 54.9562 203.34 50.3035L202.565 50.9289V78.4445C205.271 77.7276 208.047 77.3082 210.844 77.1938C214.105 77.1655 217.354 77.5864 220.5 78.4445V78.5195ZM244.514 110.738L234.708 122.269C229.43 118.192 225.403 115.115 218.624 110.112C211.82 114.04 208.243 116.591 198.988 122.419C194.752 120.143 191.227 116.74 188.804 112.586C186.38 108.432 185.152 103.689 185.255 98.8811C185.255 90.0761 190.808 82.6218 201.789 78.5946C198.35 75.9844 194.644 73.7457 190.733 71.9158V55.0312C199.019 51.0125 206.988 46.3716 214.572 41.1483C221.826 45.9761 227.279 49.4781 236.259 55.5065V106.435C240.586 109.537 242.612 110.363 244.363 110.488L244.514 110.738Z" fill="#0B67B2"/>
<path d="M122.094 103.008V65.7372H102.283V105.185C107.286 107.986 109.787 109.412 112.589 109.412C114.371 109.088 116.007 108.213 117.266 106.911C117.266 106.911 120.343 104.409 122.094 103.008V103.008ZM75.6179 51.0789V21.0619C75.6179 21.0619 66.6628 14.6083 62.0602 11.2314L55.2063 15.2086V51.0789H75.6179ZM100.282 104.559V15.0085L93.1028 19.2609V102.383C95.5524 102.907 97.9538 103.635 100.282 104.559V104.559ZM122.094 51.0789V21.2871C115.974 19.8695 110.558 16.3233 106.811 11.2814L102.283 14.133V51.0789H122.094ZM151.586 108.787C151.586 108.787 142.806 117.016 137.228 122.569C132.225 118.017 125.021 112.564 118.992 107.761C114.415 111.188 103.058 119.468 99.1812 122.77C92.6301 118.065 84.7321 115.608 76.6684 115.766C71.0736 115.731 65.6138 117.484 61.0846 120.768L60.7594 119.968C63.5298 112.781 68.8815 106.885 75.7679 103.434V65.9123H55.2063V105.935C55.2063 116.541 48.3524 122.945 37.2711 122.945C29.4917 122.945 22.2626 119.042 14.7584 119.042C7.25411 119.042 3.90221 121.169 1.02558 124.646L0 124.22C0.625354 112.164 7.02898 104.734 18.8607 104.734C26.515 104.734 34.8447 108.461 43.0494 108.461C50.3035 108.461 53.1801 105.96 53.1801 98.6559V16.3092C49.6031 18.3104 48.1773 19.2859 45.6759 20.6617V78.9948C45.6759 91.5018 34.8948 97.7554 22.5878 99.0061L22.5128 98.6559C25.7646 96.6297 28.266 91.5769 28.266 84.9231V65.7372H25.5645C19.336 65.7372 17.0347 68.9891 16.3843 72.441L15.909 72.291C14.5993 71.189 13.5646 69.7967 12.8872 68.2248C12.2098 66.6529 11.9083 64.9447 12.0068 63.2358C12.0068 56.1318 17.7851 51.0789 25.8897 51.0789H28.216V42.349C28.216 31.2927 35.245 24.5889 45.2256 18.8107L76.7185 0.550308C82.847 5.00283 90.6264 10.656 97.005 15.0085L121.319 1.02558C125.571 6.02841 130.049 9.60544 138.003 9.60544C141.405 9.67135 144.792 9.13792 148.009 8.02955L148.334 8.50482C147.971 11.2512 146.978 13.8766 145.434 16.1762C143.889 18.4759 141.834 20.3876 139.429 21.7623V102.683C144.557 106.01 148.384 108.411 151.436 108.461L151.586 108.787Z" fill="#0B67B2"/>
</g>
<defs>
<clipPath id="clip0">
<rect width="750" height="124.521" fill="white"/>
</clipPath>
</defs>
</svg>
