<svg width="60" height="68" viewBox="0 0 60 68" fill="none" xmlns="http://www.w3.org/2000/svg">
<path d="M30 54.4001C27.2299 54.4001 24.8299 53.7967 22.8 52.5905C20.7773 51.3888 19.1601 49.6865 18.1325 47.677C17.0399 45.5861 16.2401 43.375 15.7525 41.0974C15.2351 38.6273 14.9831 36.1159 15 33.6C15 31.6078 15.13 29.7034 15.3925 27.8822C15.6525 26.0635 16.135 24.2146 16.8375 22.3379C17.54 20.4613 18.445 18.8343 19.5475 17.4546C20.6953 16.0411 22.1794 14.8905 23.885 14.0919C25.675 13.2298 27.7099 12.8 30 12.8C32.7701 12.8 35.1701 13.4032 37.2 14.6096C39.2227 15.8112 40.8398 17.5136 41.8675 19.523C42.9526 21.5914 43.745 23.7847 44.2476 26.1026C44.7475 28.4184 45 30.9192 45 33.6C45 35.5922 44.8699 37.4966 44.6076 39.3178C44.3278 41.2085 43.8334 43.067 43.1326 44.862C42.4075 46.7385 41.5075 48.3658 40.4225 49.7455C39.3374 51.125 37.9025 52.2461 36.115 53.1082C34.3274 53.9702 32.2901 54.4001 30 54.4001ZM35.2951 39.1068C36.7296 37.6666 37.5276 35.6736 37.5 33.6C37.5 31.4575 36.7824 29.622 35.3501 28.0932C33.9151 26.5644 32.1324 25.8 30 25.8C27.8676 25.8 26.0851 26.5644 24.6499 28.0932C23.2448 29.5495 22.4688 31.5372 22.5 33.6C22.5 35.7425 23.2175 37.578 24.6499 39.1068C26.0851 40.6356 27.8676 41.4 30 41.4C32.1324 41.4 33.8976 40.6356 35.2951 39.1068ZM30 64.8C46.5674 64.8 60 50.8301 60 33.6C60 16.3698 46.5674 2.39999 30 2.39999C13.4325 2.39999 0 16.3698 0 33.6C0 50.8301 13.4325 64.8 30 64.8Z" fill="black"/>
</svg>
