<svg width="500" height="69" viewBox="0 0 500 69" fill="none" xmlns="http://www.w3.org/2000/svg">
<g clip-path="url(#clip0)">
<path d="M56.7691 32.7675H58.091V44.0378L57.8127 59.1345C57.8127 61.8478 58.9258 64.1436 61.0825 65.9524C63.3087 67.7612 66.3002 68.6656 70.1266 68.6656C71.1701 68.6656 72.2137 68.5961 73.2573 68.3874C74.3008 68.2482 75.4139 67.9004 76.7358 67.3438C77.8489 66.3003 79.1011 65.1176 80.5621 63.7262L82.3709 62.0565L81.6057 60.1781C80.5621 60.3868 79.6577 60.5259 79.0316 60.5955C78.3359 60.6651 77.4315 60.6651 76.3183 60.6651C74.4399 60.6651 73.0485 60.2477 72.0746 59.4824C71.1006 58.6476 70.544 57.5344 70.4049 56.143C70.3353 55.3082 70.2657 52.5254 70.2657 47.7946V32.6284H75.0661L79.936 32.6979C80.2838 32.6979 80.6317 32.6979 81.0491 32.6284L81.8839 26.4366C79.6577 26.7149 76.3183 26.9236 71.9354 26.9236H70.2657L70.6832 18.923L71.031 13.6357L71.518 8.90496L70.1962 8.00055C66.1611 9.7398 64.074 10.6442 63.9349 10.7138C62.9609 11.0616 60.8738 11.6878 57.6736 12.6617C57.9518 15.862 58.091 18.5752 58.091 20.8014V26.9236C57.4648 27.4106 56.7691 27.828 56.0039 28.2454L51.5514 30.8195V32.9066C53.2211 32.7675 54.9603 32.7675 56.7691 32.7675Z" fill="black"/>
<path d="M45.8467 12.3139C46.0554 10.4355 46.4032 8.48754 46.8902 6.47001L46.4728 5.35689C44.0378 4.31334 41.1855 3.4785 37.9157 2.92194C34.6459 2.36538 31.237 2.0871 27.7585 2.0871C24.4191 2.0871 21.0797 2.43495 17.8795 3.13065C14.6097 3.75678 11.7573 4.8699 9.25282 6.47001C6.67873 8.07012 4.66119 10.2964 3.13065 13.1487C1.60011 16.0011 0.834841 19.2013 0.834841 22.6103C0.834841 25.0452 1.25226 27.341 2.15667 29.4281C2.99151 31.5152 4.31334 33.3241 6.05259 34.8546C7.79185 36.3156 10.0877 37.4983 12.94 38.2635C14.8184 38.7505 18.7839 39.6549 24.7669 40.768C28.9411 41.6725 31.8631 42.5073 33.4632 43.3421C35.1329 44.177 36.3156 45.2901 37.0808 46.6119C37.8461 48.0033 38.2635 49.6034 38.2635 51.5514C38.2635 53.8472 37.707 55.8648 36.5938 57.6736C35.4807 59.4824 33.6719 60.8738 31.237 61.9173C28.802 62.9609 25.9496 63.4479 22.819 63.4479C19.2013 63.4479 15.862 62.7522 12.8705 61.2912C9.80938 59.8302 7.65271 58.1606 6.40044 56.2822C5.98302 53.0124 5.77431 50.2991 5.84388 48.0729H1.66968C1.53054 55.2386 1.04355 60.5259 0 64.0044C3.82635 65.7437 7.30486 66.9264 10.4355 67.6221C13.6357 68.3178 17.2534 68.6656 21.2884 68.6656C26.854 68.6656 31.5848 67.9004 35.5503 66.4394C38.0548 65.535 40.4202 64.1436 42.7856 62.3348C45.151 60.5259 46.9598 58.4388 48.2816 56.2126C50.0209 53.2907 50.9253 49.8122 50.9253 45.9162C50.9253 43.69 50.647 41.6725 49.9513 39.9332C49.3252 38.1244 48.4903 36.6634 47.5859 35.4807C46.6119 34.298 45.2901 33.2545 43.6204 32.3501C41.9507 31.4457 39.7941 30.6804 37.1504 30.0543C36.1069 29.8456 33.8806 29.4281 30.4717 28.9411C27.0627 28.3846 24.4191 27.9672 22.4711 27.5497C19.9666 26.9236 18.0882 26.2975 16.7664 25.5322C15.4446 24.7669 14.4706 23.793 13.7749 22.5407C13.0792 21.2884 12.7313 19.6883 12.6618 17.6708C12.6618 14.888 13.914 12.3835 16.349 10.2964C18.7839 8.20926 22.2624 7.16571 26.7845 7.16571C29.9151 7.16571 32.7675 7.6527 35.272 8.69625C37.7765 9.7398 39.5854 10.9225 40.5593 12.2443C40.8376 13.7053 40.9768 16.2098 41.0463 19.7579H45.2205C45.4292 16.6968 45.638 14.1923 45.8467 12.3139Z" fill="black"/>
<path d="M89.815 31.4457C90.3715 31.6544 90.7889 32.0022 90.9977 32.4196C91.2759 32.8371 91.3455 33.9502 91.3455 35.6894L91.4151 45.2901C91.4151 47.725 91.4151 49.7426 91.3455 51.3427C91.2064 54.2646 91.1368 55.9343 91.1368 56.4213C91.1368 60.1781 92.3891 63.1696 94.9631 65.3958C97.5372 67.6221 101.016 68.8048 105.468 68.8048C107.764 68.8048 110.06 68.4569 112.356 67.6917L117.991 62.8217C118.965 62.0565 120.078 61.1521 121.4 60.1781C121.4 61.9173 121.4 63.1 121.33 63.7262L121.052 67.2742L121.4 67.6221L130.792 67.4134L141.019 67.6221V63.9349C137.61 63.7957 135.522 63.587 134.896 63.2392C134.549 63.0305 134.27 62.613 134.131 62.126C133.853 60.8042 133.714 57.3953 133.714 51.8297V42.3682C133.714 41.6725 133.853 38.3331 134.131 32.3501L134.688 23.9321L133.714 23.4451C129.261 24.7669 126.131 25.6018 124.322 26.0192C122.443 26.367 118.965 26.854 113.886 27.4802V30.9587C117.434 31.1674 119.452 31.3065 119.939 31.4457C120.426 31.5848 120.774 31.7935 120.913 32.0718C121.191 32.4892 121.33 33.7415 121.33 35.8286L121.4 42.2986V50.0904C121.4 52.5949 121.191 54.1951 120.774 55.0299C120.148 56.2126 119.034 57.3953 117.365 58.578C115.765 59.7607 113.747 60.3172 111.382 60.3172C109.295 60.3172 107.625 59.8302 106.373 58.8563C105.12 57.8823 104.355 56.4213 104.007 54.5429C103.799 53.0819 103.659 50.16 103.659 45.8467V40.6985C103.659 35.5503 103.938 29.9847 104.425 24.0017L103.729 23.5147C99.2069 24.9061 95.5197 25.9496 92.6673 26.5062C89.815 27.0627 86.893 27.4106 84.0406 27.5497V31.0282C87.38 31.0978 89.2584 31.2369 89.815 31.4457Z" fill="black"/>
<path d="M174.343 43.203C174.343 49.2556 174.203 52.8732 173.856 54.0559C173.508 55.2386 172.395 56.4909 170.586 57.7431C168.777 58.9954 166.62 59.6911 164.185 59.6911C160.985 59.6911 158.411 58.578 156.463 56.3517C153.889 53.3602 152.637 49.0469 152.637 43.4813C152.637 40.4898 152.985 37.8461 153.68 35.5503C154.376 33.2545 155.489 31.5848 156.88 30.6108C158.341 29.5673 160.15 29.0803 162.446 29.0803C165.02 29.0803 167.455 29.6368 169.612 30.8195C170.794 31.4457 172.255 32.7675 174.064 34.7155L174.343 43.203ZM188.326 63.4479C187.77 63.2392 187.422 62.9609 187.213 62.613C187.004 62.2652 186.796 61.2216 186.726 59.4824C186.587 57.0474 186.448 54.8212 186.448 52.7341V48.4903C186.448 34.1589 186.517 23.0277 186.587 15.0967C186.587 13.6357 186.796 8.8354 187.213 0.695701L185.891 0C179.908 2.01753 173.369 3.33936 166.342 4.03506V7.444C169.96 7.51357 171.977 7.65271 172.464 7.72228C172.882 7.79185 173.229 8.00056 173.438 8.34841C173.716 8.76583 173.925 9.73981 173.995 11.3399C174.134 14.6097 174.273 17.3925 174.273 19.7579C174.273 21.7059 174.203 23.5842 174.134 25.3931C171.56 24.4887 169.82 23.9321 168.777 23.7234C167.733 23.5147 166.412 23.3755 164.811 23.3755C162.237 23.3755 160.22 23.6538 158.62 24.2104C157.02 24.7669 154.376 26.2279 150.689 28.5933C147.002 30.9587 144.775 32.5588 144.01 33.4632C142.966 34.6459 142.062 36.246 141.227 38.4027C140.184 41.1855 139.627 44.3857 139.627 47.9338C139.627 54.3342 141.436 59.4128 145.054 63.1C148.671 66.7872 153.193 68.6656 158.689 68.6656C160.776 68.6656 162.446 68.4569 163.698 67.9699C164.742 67.3438 165.785 66.5785 166.829 65.6741C169.542 63.4479 172.047 61.4999 174.273 59.7607L174.203 63.5175L173.925 67.1351L174.343 67.483L183.317 67.3438L193.753 67.483V64.0044C190.622 63.7957 188.883 63.587 188.326 63.4479Z" fill="black"/>
<path d="M214.484 41.4638C209.893 41.4638 206.693 41.3246 204.745 41.0463C204.606 36.3851 205.371 33.0458 207.11 31.0282C208.78 29.0107 210.936 28.0367 213.511 28.0367C216.015 28.0367 218.102 29.0107 219.633 30.8891C221.163 32.8371 221.928 36.246 221.789 41.0463C219.841 41.3246 217.406 41.4638 214.484 41.4638ZM232.364 58.7171C229.79 59.8998 227.703 60.6651 226.103 61.0825C224.503 61.4304 222.763 61.6391 220.885 61.6391C216.502 61.6391 212.884 60.2477 209.893 57.4649C206.901 54.6821 205.301 50.8557 205.023 46.0554H208.293C208.849 46.0554 209.267 46.0554 209.754 45.9858C210.171 45.9858 212.397 45.9162 216.502 45.9162C220.537 45.9162 223.807 45.7771 226.311 45.5684C227.077 45.5684 228.607 45.2901 230.903 44.9423C232.573 44.664 233.825 44.3857 234.66 44.1074C234.729 43.3421 234.729 42.5073 234.729 41.6725C234.729 37.9157 234.173 34.7155 232.99 32.0022C231.807 29.3586 229.79 27.2019 226.938 25.4626C224.085 23.7234 220.468 22.8885 216.015 22.8885C212.884 22.8885 210.171 23.3755 207.806 24.28C206.554 24.7669 204.536 25.8801 201.753 27.5497C198.97 29.2194 197.231 30.4021 196.605 30.9587C195.561 31.9327 194.587 33.5328 193.822 35.6894C192.64 38.8201 192.083 42.3682 192.083 46.4032C192.083 49.1165 192.361 51.6906 192.987 53.9864C193.613 56.2822 194.518 58.3693 195.909 60.1085C197.231 61.8478 198.831 63.3783 200.57 64.561C202.31 65.7437 204.466 66.7177 206.971 67.4134C209.475 68.1091 212.328 68.4569 215.598 68.4569C218.311 68.4569 220.815 68.1787 222.902 67.6917C225.755 66.9264 228.538 65.8133 231.251 64.2827L233.408 59.8303L232.364 58.7171Z" fill="black"/>
<path d="M290.872 63.9349C289.342 63.8653 288.368 63.6566 287.881 63.2392C287.463 62.8913 287.116 62.1261 286.976 60.8738C286.837 59.6216 286.768 56.4909 286.698 51.2731L286.629 46.5424C286.629 46.0554 286.629 45.5684 286.698 45.2205C286.768 44.2466 286.768 42.0899 286.768 38.5418C286.768 35.4807 286.489 33.1849 286.003 31.724C285.516 30.263 284.681 28.8716 283.428 27.5498C282.176 26.2279 280.715 25.1844 278.976 24.4887C277.237 23.7234 274.523 23.3755 271.045 23.3755C269.723 23.3755 268.68 23.4451 267.914 23.5843C267.149 23.7234 266.245 24.0017 265.131 24.3495L256.087 31.0283V23.7234L254.766 23.1668C252.4 24.1408 250.244 24.9061 248.365 25.3931C246.487 25.8801 242.521 26.5758 236.538 27.4802V31.0283C239.669 31.0978 241.547 31.237 242.173 31.5152C242.591 31.6544 242.869 31.7935 243.078 32.0718C243.286 32.3501 243.426 33.4632 243.495 35.3416C243.634 39.168 243.773 42.5073 243.773 45.151V51.134C243.773 53.082 243.773 54.4038 243.704 55.3082L243.495 59.3433C243.495 60.9434 243.287 62.0565 242.939 62.6131C242.73 62.9609 242.382 63.2392 241.895 63.3783C240.921 63.7262 239.112 63.8653 236.538 63.8653V67.4134C239.878 67.2743 244.539 67.2047 250.591 67.2047C255.809 67.2047 260.192 67.2743 263.81 67.4134V63.8653C261.444 63.6566 260.053 63.587 259.705 63.5175C258.522 63.3088 257.757 63.1001 257.409 62.8218C257.131 62.6826 256.922 62.4044 256.783 62.1261C256.574 61.6391 256.435 60.7347 256.366 59.2737C256.227 56.0735 256.087 53.3602 256.087 51.134V43.4813C256.087 39.2375 256.157 36.8026 256.366 36.1764C256.783 35.1329 257.688 34.0893 259.218 33.1154C260.749 32.0718 262.627 31.5848 264.992 31.5848C267.288 31.5848 269.167 32.0718 270.558 33.1154C271.949 34.1589 272.854 35.4807 273.341 37.1504C273.758 38.8201 274.036 42.2986 274.036 47.6555V51.2731L273.758 58.7867C273.41 63.4479 273.202 66.022 273.132 66.7177L274.036 67.5525C276.471 67.3438 279.324 67.2047 282.594 67.2047C285.446 67.2047 289.133 67.3438 293.655 67.5525V64.1436C292.403 64.0045 291.429 63.9349 290.872 63.9349Z" fill="black"/>
<path d="M296.508 32.6284H297.829V43.8987L297.551 58.9954C297.551 61.7086 298.664 64.0045 300.821 65.8133C303.047 67.6221 306.039 68.5265 309.865 68.5265C310.909 68.5265 311.952 68.4569 312.996 68.2482C314.039 68.1091 315.152 67.7612 316.474 67.2047C317.587 66.1611 318.84 64.9784 320.3 63.587L322.109 61.9174L321.344 60.039C320.3 60.2477 319.396 60.3868 318.77 60.4564C318.074 60.526 317.17 60.526 316.057 60.526C314.178 60.526 312.787 60.1085 311.813 59.3433C310.839 58.5084 310.282 57.3953 310.143 56.0039C310.074 55.1691 310.004 52.3863 310.004 47.6555V32.4892H314.804L319.674 32.5588C320.022 32.5588 320.37 32.5588 320.787 32.4892L321.622 26.2975C319.396 26.5758 316.057 26.7845 311.674 26.7845H310.004L310.422 18.7839L310.769 13.4966L311.256 8.76583L309.935 7.86142C305.899 9.60067 303.812 10.5051 303.673 10.5747C302.699 10.9225 300.612 11.5486 297.412 12.5226C297.69 15.7228 297.829 18.4361 297.829 20.6623V26.7845C297.134 27.2715 296.508 27.6889 295.742 28.1063L291.29 30.6804V32.7675C292.959 32.6979 294.699 32.6284 296.508 32.6284Z" fill="black"/>
<path d="M355.364 67.1351C357.521 67.1351 361.347 67.2047 366.773 67.3438C373.939 67.483 377.835 67.5525 378.392 67.5525C382.635 67.5525 385.766 67.483 387.784 67.3438C388.758 67.2743 389.731 67.0655 390.636 66.8568C390.636 66.3003 390.845 64.561 391.053 61.6391L392.306 52.3863C392.306 52.2471 392.375 51.7601 392.445 50.8557H388.34C387.714 53.8472 387.088 56.4909 386.392 58.7867C386.114 59.6911 385.836 60.2477 385.557 60.4564C385.279 60.6651 384.514 60.8738 383.122 61.0825C379.366 61.6391 374.983 61.9174 369.974 61.9174C368.304 61.9174 365.243 61.7782 360.651 61.5695C360.651 60.6651 360.582 58.091 360.582 53.7777C360.582 49.5339 360.512 45.2205 360.512 40.8376C360.512 32.5588 360.442 28.1759 360.442 27.6193C360.442 22.5407 360.512 18.2969 360.651 14.9576C360.79 11.6182 360.929 9.73981 361.138 9.32239C361.277 8.90497 361.556 8.62669 361.903 8.41798C362.738 8.00056 365.034 7.72228 368.721 7.58314V3.61765C363.364 3.82636 357.66 3.9655 351.607 3.9655C346.25 3.9655 341.45 3.82636 337.206 3.61765V7.65271C341.519 7.79185 344.093 8.1397 344.859 8.55712C345.207 8.76583 345.485 9.04411 345.624 9.39196C345.902 10.2268 346.111 13.4966 346.25 19.2013C346.32 21.4276 346.32 27.4106 346.32 37.0113C346.32 43.5509 346.25 49.186 346.111 53.8472C345.972 58.5084 345.833 61.2217 345.694 61.9869C345.694 62.1956 345.554 62.3348 345.415 62.4739C345.207 62.7522 344.789 63.0305 344.093 63.3783C342.563 64.2132 341.311 64.8393 340.476 65.1871V67.5525C347.224 67.2742 352.164 67.1351 355.364 67.1351Z" fill="black"/>
<path d="M405.593 67.3438C411.089 67.3438 416.238 67.4134 420.899 67.5525V64.0045C417.49 63.8653 415.333 63.6566 414.429 63.2392C414.011 63.0305 413.733 62.6826 413.664 62.1261C413.385 61.1521 413.246 58.0214 413.246 52.7341V37.1504C413.246 32.9762 413.455 28.5237 413.872 23.793L412.69 23.1668C409.698 24.28 406.915 25.1148 404.341 25.6714C401.767 26.2279 398.01 26.7149 393.071 27.2019V30.6804C396.897 30.6804 399.123 30.9587 399.819 31.3065C400.097 31.5152 400.306 31.8631 400.445 32.4892C400.724 33.8111 400.863 39.2375 400.863 48.7686C400.863 55.7256 400.724 60.039 400.376 61.7086C400.237 62.4739 399.889 63.0305 399.402 63.3088C398.845 63.587 396.758 63.8653 393.071 64.1436V67.5525C396.688 67.4134 400.863 67.3438 405.593 67.3438ZM401.28 3.40894C399.819 4.80034 399.054 6.40045 399.054 8.34841C399.054 10.2964 399.819 11.9661 401.28 13.3575C402.741 14.7489 404.55 15.4446 406.637 15.4446C408.724 15.4446 410.533 14.7489 411.994 13.3575C413.455 11.9661 414.22 10.2964 414.22 8.34841C414.22 6.40045 413.455 4.80034 411.994 3.40894C410.533 2.01754 408.724 1.32184 406.637 1.32184C404.55 1.39141 402.741 2.01754 401.28 3.40894Z" fill="black"/>
<path d="M435.926 67.4134L452.831 67.6221V64.1436C448.518 63.8653 446.292 63.6566 446.083 63.6566C445.318 63.5175 444.692 63.3087 444.344 63.0305C443.996 62.7522 443.718 62.4043 443.579 61.9869C443.37 61.3608 443.231 59.6215 443.161 56.63C443.092 53.6385 443.022 50.5774 443.022 47.3076V32.6979C445.874 32.6284 447.614 32.5588 448.24 32.5588C448.449 32.5588 449.283 32.5588 450.744 32.6284L455.753 32.6979L456.519 28.6629C456.588 28.1063 456.727 27.5497 456.936 27.0628L456.31 26.5758C454.223 26.7149 451.788 26.7845 448.936 26.854L443.092 26.9236V20.5927C443.092 15.7228 443.3 12.6617 443.718 11.4791C443.996 10.6442 444.483 10.0181 445.318 9.5311C446.431 8.8354 447.962 8.55712 449.91 8.55712C451.231 8.55712 452.344 8.69626 453.179 9.04411C454.014 9.39196 454.988 9.94852 455.962 10.7834L457.98 9.94852C457.91 7.16572 458.119 4.10463 458.675 0.834841C456.658 0.27828 454.988 0 453.318 0C451.718 0 450.327 0.20871 449.075 0.695701C447.822 1.11312 446.709 1.73925 445.735 2.50452L439.752 7.444C435.995 10.4355 433.63 12.5922 432.517 13.914C431.821 14.7489 431.404 15.5837 431.056 16.4881C430.708 17.3925 430.569 18.8535 430.36 21.0102C430.221 23.0973 430.152 24.9061 430.152 26.3671C430.152 26.854 429.943 27.2019 429.526 27.4802C429.386 27.6193 427.091 28.7324 422.708 30.8195V33.0458L429.456 32.7675L430.847 32.8371V46.5424C430.778 54.8908 430.639 59.8302 430.43 61.4304C430.36 62.3348 430.012 62.8913 429.456 63.2392C428.76 63.6566 426.395 64.0045 422.499 64.2132V67.6917C429.386 67.483 433.839 67.4134 435.926 67.4134Z" fill="black"/>
<path d="M479.686 41.4638C475.094 41.4638 471.894 41.3246 469.946 41.0463C469.807 36.3851 470.572 33.0458 472.311 31.0282C473.981 29.0107 476.137 28.0367 478.712 28.0367C481.216 28.0367 483.303 29.0107 484.834 30.8891C486.364 32.8371 487.13 36.246 486.99 41.0463C485.042 41.3246 482.607 41.4638 479.686 41.4638ZM497.565 58.7171C494.991 59.8998 492.904 60.6651 491.304 61.0825C489.704 61.4999 487.964 61.6391 486.086 61.6391C481.703 61.6391 478.085 60.2477 475.094 57.4649C472.102 54.6821 470.502 50.8557 470.224 46.0554H473.494C474.05 46.0554 474.537 46.0554 474.955 45.9858C475.372 45.9858 477.598 45.9162 481.703 45.9162C485.738 45.9162 489.008 45.7771 491.512 45.5684C492.278 45.5684 493.808 45.2901 496.104 44.9423C497.774 44.664 499.026 44.3857 499.861 44.1074C499.93 43.3421 499.93 42.5073 499.93 41.6725C499.93 37.9157 499.374 34.7155 498.191 32.0022C497.008 29.3586 494.991 27.2019 492.139 25.4626C489.286 23.7234 485.669 22.8885 481.216 22.8885C478.085 22.8885 475.372 23.3755 473.007 24.28C471.755 24.7669 469.737 25.8801 466.954 27.5497C464.171 29.2194 462.432 30.4021 461.806 30.9587C460.762 31.9327 459.788 33.5328 459.023 35.6894C457.84 38.8201 457.284 42.3682 457.284 46.4032C457.284 49.1165 457.562 51.6906 458.188 53.9864C458.814 56.2822 459.719 58.3693 461.11 60.1085C462.432 61.8478 464.032 63.3783 465.772 64.561C467.511 65.8133 469.667 66.7177 472.172 67.4134C474.676 68.1091 477.529 68.4569 480.799 68.4569C483.512 68.4569 486.016 68.1787 488.103 67.6917C490.956 66.9264 493.739 65.8133 496.452 64.2827L498.609 59.8303L497.565 58.7171Z" fill="black"/>
</g>
<defs>
<clipPath id="clip0">
<rect width="500" height="68.8048" fill="white"/>
</clipPath>
</defs>
</svg>
