<svg width="750" height="104" viewBox="0 0 750 104" fill="none" xmlns="http://www.w3.org/2000/svg">
<g clip-path="url(#clip0)">
<path d="M85.1538 49.1512H87.1365V66.0568L86.7191 88.7018C86.7191 92.7717 88.3888 96.2154 91.6238 98.9286C94.9632 101.642 99.4504 102.998 105.19 102.998C106.755 102.998 108.321 102.894 109.886 102.581C111.451 102.372 113.121 101.851 115.104 101.016C116.773 99.4504 118.652 97.6763 120.843 95.5892L123.556 93.0847L122.409 90.2671C120.843 90.5802 119.487 90.7889 118.547 90.8933C117.504 90.9976 116.147 90.9976 114.478 90.9976C111.66 90.9976 109.573 90.3715 108.112 89.2236C106.651 87.9713 105.816 86.3016 105.607 84.2145C105.503 82.9623 105.399 78.7881 105.399 71.6919V48.9425H112.599L119.904 49.0469C120.426 49.0469 120.948 49.0469 121.574 48.9425L122.826 39.6549C119.487 40.0723 114.478 40.3854 107.903 40.3854H105.399L106.025 28.3846L106.547 20.4536L107.277 13.3574L105.294 12.0008C99.2417 14.6097 96.1111 15.9663 95.9024 16.0707C94.4414 16.5924 91.3107 17.5316 86.5104 18.9926C86.9278 23.7929 87.1365 27.8628 87.1365 31.2022V40.3854C86.1973 41.1159 85.1538 41.742 84.0059 42.3682L77.3271 46.2293V49.3599C79.8317 49.1512 82.4405 49.1512 85.1538 49.1512Z" fill="black"/>
<path d="M68.77 18.4708C69.0831 15.6533 69.6048 12.7313 70.3353 9.70502L69.7092 8.03533C66.0568 6.47001 61.7782 5.21775 56.8735 4.38291C51.9688 3.54807 46.8554 3.13065 41.6377 3.13065C36.6286 3.13065 31.6196 3.65242 26.8193 4.69597C21.9146 5.63517 17.636 7.30485 13.8792 9.70502C10.0181 12.1052 6.99179 15.4445 4.69598 19.7231C2.40017 24.0017 1.25226 28.802 1.25226 33.9154C1.25226 37.5678 1.87839 41.0115 3.23501 44.1422C4.48727 47.2728 6.47002 49.9861 9.07889 52.2819C11.6878 54.4733 15.1315 56.2474 19.41 57.3953C22.2276 58.1258 28.1759 59.4824 37.1504 61.1521C43.4117 62.5087 47.7946 63.7609 50.1948 65.0132C52.6993 66.2655 54.4734 67.9352 55.6213 69.9179C56.7692 72.005 57.3953 74.4052 57.3953 77.3271C57.3953 80.7708 56.5605 83.7971 54.8908 86.5104C53.2211 89.2236 50.5079 91.3107 46.8554 92.876C43.203 94.4413 38.9244 95.1718 34.2285 95.1718C28.802 95.1718 23.793 94.1283 19.3057 91.9368C14.7141 89.7454 11.4791 87.2408 9.60067 84.4233C8.97454 79.5186 8.66147 75.4487 8.76583 72.1094H2.50452C2.29581 82.8579 1.56533 90.7889 0 96.0067C5.73953 98.6155 10.9573 100.39 15.6533 101.433C20.4536 102.477 25.8801 102.998 31.9327 102.998C40.2811 102.998 47.3772 101.851 53.3254 99.6591C57.0822 98.3025 60.6303 96.2154 64.1784 93.5021C67.7265 90.7889 70.4397 87.6583 72.4224 84.3189C75.0313 79.936 76.3879 74.7182 76.3879 68.8743C76.3879 65.535 75.9705 62.5087 74.927 59.8998C73.9878 57.1866 72.7355 54.9951 71.3789 53.2211C69.9179 51.4471 67.9352 49.8817 65.4306 48.5251C62.9261 47.1685 59.6911 46.0206 55.7256 45.0814C54.1603 44.7683 50.8209 44.1422 45.7075 43.4117C40.5941 42.5769 36.6286 41.9507 33.7067 41.3246C29.9499 40.3854 27.1323 39.4462 25.1496 38.2983C23.1668 37.1504 21.7059 35.6894 20.6623 33.811C19.6188 31.9327 19.097 29.5325 18.9926 26.5062C18.9926 22.332 20.871 18.5752 24.5234 15.4445C28.1759 12.3139 33.3936 10.7486 40.1767 10.7486C44.8727 10.7486 49.1512 11.4791 52.908 13.0444C56.6648 14.6097 59.378 16.3837 60.839 18.3665C61.2564 20.5579 61.4651 24.3147 61.5695 29.6368H67.8308C68.1439 25.0452 68.4569 21.2884 68.77 18.4708Z" fill="black"/>
<path d="M134.722 47.1685C135.557 47.4816 136.183 48.0033 136.496 48.6295C136.914 49.2556 137.018 50.9253 137.018 53.5342L137.123 67.9352C137.123 71.5876 137.123 74.6139 137.018 77.0141C136.809 81.397 136.705 83.9015 136.705 84.632C136.705 90.2671 138.584 94.7544 142.445 98.0938C146.306 101.433 151.524 103.207 158.202 103.207C161.646 103.207 165.09 102.685 168.533 101.537L176.986 94.2326C178.447 93.0847 180.117 91.7281 182.1 90.2671C182.1 92.876 182.1 94.6501 181.995 95.5892L181.578 100.911L182.1 101.433L196.188 101.12L211.528 101.433V95.9023C206.414 95.6936 203.284 95.3805 202.344 94.8588C201.823 94.5457 201.405 93.9196 201.197 93.1891C200.779 91.2063 200.57 86.0929 200.57 77.7445V63.5522C200.57 62.5087 200.779 57.4996 201.197 48.5251L202.031 35.8981L200.57 35.1677C193.892 37.1504 189.196 38.4027 186.483 39.0288C183.665 39.5506 178.447 40.2811 170.829 41.2203V46.438C176.151 46.7511 179.178 46.9598 179.908 47.1685C180.639 47.3772 181.16 47.6903 181.369 48.1077C181.787 48.7338 181.995 50.6122 181.995 53.7429L182.1 63.4479V75.1357C182.1 78.8924 181.787 81.2926 181.16 82.5449C180.221 84.3189 178.552 86.0929 176.047 87.867C173.647 89.641 170.621 90.4758 167.072 90.4758C163.942 90.4758 161.437 89.7454 159.559 88.2844C157.68 86.8234 156.533 84.632 156.011 81.8144C155.698 79.6229 155.489 75.24 155.489 68.77V61.0477C155.489 53.3254 155.906 44.977 156.637 36.0025L155.593 35.272C148.81 37.3591 143.279 38.9244 139.001 39.7593C134.722 40.5941 130.339 41.1159 126.061 41.3246V46.5424C131.07 46.6467 133.888 46.8554 134.722 47.1685Z" fill="black"/>
<path d="M261.514 64.8045C261.514 73.8834 261.305 79.3099 260.783 81.0839C260.262 82.8579 258.592 84.7363 255.879 86.6147C253.165 88.4931 249.93 89.5367 246.278 89.5367C241.478 89.5367 237.617 87.867 234.695 84.5276C230.833 80.0403 228.955 73.5703 228.955 65.2219C228.955 60.7347 229.477 56.7692 230.52 53.3254C231.564 49.8817 233.234 47.3772 235.321 45.9162C237.512 44.3509 240.225 43.6204 243.669 43.6204C247.53 43.6204 251.183 44.4553 254.418 46.2293C256.192 47.1685 258.383 49.1512 261.096 52.0732L261.514 64.8045ZM282.489 95.1718C281.654 94.8588 281.133 94.4414 280.82 93.9196C280.506 93.3978 280.193 91.8325 280.089 89.2236C279.88 85.5712 279.672 82.2318 279.672 79.1012V72.7355C279.672 51.2383 279.776 34.5415 279.88 22.6451C279.88 20.4536 280.193 13.2531 280.82 1.04355L278.837 0C269.862 3.0263 260.053 5.00904 249.513 6.0526V11.166C254.939 11.2703 257.966 11.4791 258.696 11.5834C259.322 11.6878 259.844 12.0008 260.157 12.5226C260.575 13.1487 260.888 14.6097 260.992 17.0099C261.201 21.9146 261.41 26.0888 261.41 29.6368C261.41 32.5588 261.305 35.3764 261.201 38.0896C257.34 36.733 254.731 35.8981 253.165 35.5851C251.6 35.272 249.617 35.0633 247.217 35.0633C243.356 35.0633 240.33 35.4807 237.93 36.3156C235.529 37.1504 231.564 39.3419 226.033 42.8899C220.502 46.438 217.163 48.8382 216.015 50.1948C214.45 51.9688 213.093 54.369 211.841 57.604C210.276 61.7782 209.441 66.5785 209.441 71.9007C209.441 81.5013 212.154 89.1192 217.58 94.6501C223.007 100.181 229.79 102.998 238.034 102.998C241.165 102.998 243.669 102.685 245.548 101.955C247.113 101.016 248.678 99.8678 250.244 98.5112C254.313 95.1718 258.07 92.2499 261.41 89.641L261.305 95.2762L260.888 100.703L261.514 101.224L274.976 101.016L290.629 101.224V96.0067C285.933 95.6936 283.324 95.3805 282.489 95.1718Z" fill="black"/>
<path d="M321.727 62.1956C314.839 62.1956 310.039 61.9869 307.117 61.5695C306.908 54.5777 308.056 49.5687 310.665 46.5424C313.17 43.5161 316.405 42.0551 320.266 42.0551C324.023 42.0551 327.153 43.5161 329.449 46.3337C331.745 49.2556 332.893 54.369 332.684 61.5695C329.762 61.9869 326.11 62.1956 321.727 62.1956ZM348.546 88.0757C344.685 89.8497 341.554 90.9976 339.154 91.6238C336.754 92.1455 334.145 92.4586 331.327 92.4586C324.753 92.4586 319.327 90.3715 314.839 86.1973C310.352 82.0231 307.952 76.2836 307.534 69.0831H312.439C313.274 69.0831 313.9 69.0831 314.631 68.9787C315.257 68.9787 318.596 68.8744 324.753 68.8744C330.806 68.8744 335.71 68.6656 339.467 68.3526C340.615 68.3526 342.911 67.9352 346.355 67.4134C348.859 66.996 350.737 66.5785 351.99 66.1611C352.094 65.0132 352.094 63.761 352.094 62.5087C352.094 56.8735 351.259 52.0732 349.485 48.0033C347.711 44.0378 344.685 40.8028 340.406 38.194C336.128 35.5851 330.701 34.3328 324.023 34.3328C319.327 34.3328 315.257 35.0633 311.709 36.4199C309.83 37.1504 306.804 38.8201 302.63 41.3246C298.456 43.8291 295.847 45.6032 294.907 46.438C293.342 47.899 291.881 50.2992 290.733 53.5342C288.959 58.2301 288.124 63.5522 288.124 69.6048C288.124 73.6747 288.542 77.5358 289.481 80.9795C290.42 84.4233 291.777 87.5539 293.864 90.1628C295.847 92.7717 298.247 95.0675 300.856 96.8415C303.465 98.6156 306.7 100.077 310.456 101.12C314.213 102.164 318.492 102.685 323.396 102.685C327.466 102.685 331.223 102.268 334.354 101.538C338.632 100.39 342.806 98.7199 346.876 96.4241L350.111 89.7454L348.546 88.0757Z" fill="black"/>
<path d="M436.309 95.9023C434.013 95.798 432.552 95.4849 431.821 94.8588C431.195 94.337 430.673 93.1891 430.465 91.3107C430.256 89.4323 430.152 84.7363 430.047 76.9097L429.943 69.8136C429.943 69.0831 429.943 68.3526 430.047 67.8308C430.152 66.3698 430.152 63.1348 430.152 57.8127C430.152 53.2211 429.734 49.7774 429.004 47.5859C428.273 45.3945 427.021 43.3074 425.143 41.3246C423.264 39.3419 421.073 37.7765 418.464 36.733C415.855 35.5851 411.785 35.0633 406.567 35.0633C404.585 35.0633 403.019 35.1677 401.871 35.3764C400.723 35.5851 399.367 36.0025 397.697 36.5243L384.131 46.5424V35.5851L382.148 34.7502C378.6 36.2112 375.365 37.3591 372.548 38.0896C369.73 38.8201 363.782 39.8636 354.807 41.2203V46.5424C359.503 46.6467 362.321 46.8554 363.26 47.2729C363.886 47.4816 364.304 47.6903 364.617 48.1077C364.93 48.5251 365.138 50.1948 365.243 53.0124C365.451 58.7519 365.66 63.761 365.66 67.7264V76.701C365.66 79.6229 365.66 81.6057 365.556 82.9623L365.243 89.0149C365.243 91.4151 364.93 93.0847 364.408 93.9196C364.095 94.4413 363.573 94.8588 362.843 95.0675C361.382 95.5893 358.668 95.798 354.807 95.798V101.12C359.816 100.911 366.808 100.807 375.887 100.807C383.714 100.807 390.288 100.911 395.714 101.12V95.798C392.166 95.4849 390.079 95.3805 389.557 95.2762C387.783 94.9631 386.636 94.6501 386.114 94.2326C385.696 94.0239 385.383 93.6065 385.175 93.1891C384.862 92.4586 384.653 91.102 384.548 88.9105C384.34 84.1102 384.131 80.0403 384.131 76.701V65.2219C384.131 58.8563 384.235 55.2038 384.548 54.2646C385.175 52.6993 386.531 51.134 388.827 49.673C391.123 48.1077 393.94 47.3772 397.488 47.3772C400.932 47.3772 403.75 48.1077 405.837 49.673C407.924 51.2383 409.281 53.2211 410.011 55.7256C410.637 58.2301 411.055 63.4479 411.055 71.4832V76.9097L410.637 88.18C410.115 95.1718 409.802 99.033 409.698 100.077L411.055 101.329C414.707 101.016 418.986 100.807 423.89 100.807C428.169 100.807 433.7 101.016 440.483 101.329V96.2154C438.604 96.0067 437.143 95.9023 436.309 95.9023Z" fill="black"/>
<path d="M444.761 48.9425H446.744V65.848L446.327 88.4931C446.327 92.563 447.996 96.0067 451.231 98.7199C454.571 101.433 459.058 102.79 464.798 102.79C466.363 102.79 467.928 102.685 469.494 102.372C471.059 102.164 472.729 101.642 474.711 100.807C476.381 99.2417 478.259 97.4676 480.451 95.3805L483.164 92.876L482.016 90.0584C480.451 90.3715 479.094 90.5802 478.155 90.6846C477.112 90.7889 475.755 90.7889 474.085 90.7889C471.268 90.7889 469.181 90.1628 467.72 89.0149C466.259 87.7626 465.424 86.0929 465.215 84.0058C465.111 82.7536 465.006 78.5794 465.006 71.4832V48.7338H472.207L479.512 48.8382C480.033 48.8382 480.555 48.8382 481.181 48.7338L482.434 39.4462C479.094 39.8636 474.085 40.1767 467.511 40.1767H465.006L465.632 28.1759L466.154 20.2449L466.885 13.1487L464.902 11.7921C458.849 14.401 455.719 15.7576 455.51 15.862C454.049 16.3837 450.918 17.3229 446.118 18.7839C446.535 23.5842 446.744 27.6541 446.744 30.9935V40.1767C445.701 40.9072 444.761 41.5333 443.614 42.1594L436.935 46.0206V49.1512C439.439 49.0469 442.048 48.9425 444.761 48.9425Z" fill="black"/>
<path d="M533.046 100.703C536.281 100.703 542.02 100.807 550.16 101.016C560.909 101.224 566.752 101.329 567.587 101.329C573.953 101.329 578.649 101.224 581.675 101.016C583.136 100.911 584.597 100.598 585.954 100.285C585.954 99.4504 586.267 96.8415 586.58 92.4586L588.458 78.5794C588.458 78.3707 588.563 77.6402 588.667 76.2835H582.51C581.571 80.7708 580.632 84.7363 579.588 88.18C579.171 89.5366 578.753 90.3715 578.336 90.6846C577.918 90.9976 576.771 91.3107 574.683 91.6237C569.048 92.4586 562.474 92.876 554.96 92.876C552.456 92.876 547.864 92.6673 540.977 92.3542C540.977 90.9976 540.872 87.1365 540.872 80.6665C540.872 74.3008 540.768 67.8308 540.768 61.2564C540.768 48.8382 540.664 42.2638 540.664 41.429C540.664 33.811 540.768 27.4454 540.977 22.4363C541.185 17.4273 541.394 14.6097 541.707 13.9836C541.916 13.3574 542.333 12.94 542.855 12.627C544.107 12.0008 547.551 11.5834 553.082 11.3747V5.42645C545.047 5.73952 536.489 5.94823 527.411 5.94823C519.375 5.94823 512.175 5.73952 505.809 5.42645V11.479C512.279 11.6878 516.14 12.2095 517.288 12.8357C517.81 13.1487 518.227 13.5661 518.436 14.0879C518.853 15.3402 519.167 20.2449 519.375 28.802C519.48 32.1414 519.48 41.1159 519.48 55.5169C519.48 65.3263 519.375 73.779 519.167 80.7708C518.958 87.7626 518.749 91.8325 518.54 92.9804C518.54 93.2934 518.332 93.5021 518.123 93.7109C517.81 94.1283 517.184 94.5457 516.14 95.0675C513.844 96.3197 511.966 97.2589 510.714 97.7807V101.329C520.836 100.911 528.245 100.703 533.046 100.703Z" fill="black"/>
<path d="M608.39 101.016C616.634 101.016 624.356 101.12 631.348 101.329V96.0067C626.235 95.798 623 95.4849 621.643 94.8588C621.017 94.5457 620.6 94.0239 620.495 93.1891C620.078 91.7281 619.869 87.0321 619.869 79.1012V55.7256C619.869 49.4643 620.182 42.7856 620.808 35.6894L619.034 34.7503C614.547 36.4199 610.373 37.6722 606.512 38.507C602.651 39.3419 597.015 40.0724 589.606 40.8028V46.0206C595.346 46.0206 598.685 46.438 599.729 46.9598C600.146 47.2729 600.459 47.7946 600.668 48.7338C601.085 50.7166 601.294 58.8563 601.294 73.1529C601.294 83.5884 601.085 90.0584 600.563 92.563C600.355 93.7109 599.833 94.5457 599.102 94.9631C598.268 95.3805 595.137 95.798 589.606 96.2154V101.329C595.033 101.12 601.294 101.016 608.39 101.016ZM601.92 5.11341C599.729 7.20051 598.581 9.60068 598.581 12.5226C598.581 15.4446 599.729 17.9491 601.92 20.0362C604.112 22.1233 606.825 23.1668 609.955 23.1668C613.086 23.1668 615.799 22.1233 617.991 20.0362C620.182 17.9491 621.33 15.4446 621.33 12.5226C621.33 9.60068 620.182 7.20051 617.991 5.11341C615.799 3.02631 613.086 1.98276 609.955 1.98276C606.825 2.08711 604.112 3.02631 601.92 5.11341Z" fill="black"/>
<path d="M653.889 101.12L679.247 101.433V96.2154C672.777 95.798 669.438 95.4849 669.125 95.4849C667.977 95.2762 667.038 94.9631 666.516 94.5457C665.994 94.1283 665.577 93.6065 665.368 92.9804C665.055 92.0412 664.846 89.4323 664.742 84.945C664.638 80.4578 664.533 75.8661 664.533 70.9615V49.0469C668.812 48.9425 671.421 48.8382 672.36 48.8382C672.673 48.8382 673.925 48.8382 676.117 48.9425L683.63 49.0469L684.778 42.9943C684.882 42.1595 685.091 41.3246 685.404 40.5941L684.465 39.8636C681.334 40.0724 677.682 40.1767 673.403 40.2811L664.638 40.3854V30.8891C664.638 23.5842 664.951 18.9926 665.577 17.2186C665.994 15.9663 666.725 15.0271 667.977 14.2966C669.647 13.2531 671.942 12.8357 674.864 12.8357C676.847 12.8357 678.517 13.0444 679.769 13.5662C681.021 14.0879 682.482 14.9228 683.943 16.175L686.97 14.9228C686.865 10.7486 687.178 6.15695 688.013 1.25226C684.987 0.41742 682.482 0 679.978 0C677.578 0 675.49 0.313065 673.612 1.04355C671.734 1.66968 670.064 2.60888 668.603 3.75678L659.628 11.166C653.993 15.6533 650.445 18.8883 648.776 20.871C647.732 22.1233 647.106 23.3755 646.584 24.7322C646.062 26.0888 645.854 28.2802 645.541 31.5152C645.332 34.6459 645.227 37.3591 645.227 39.5506C645.227 40.2811 644.914 40.8028 644.288 41.2203C644.08 41.429 640.636 43.0986 634.061 46.2293V49.5687L644.184 49.1512L646.271 49.2556V69.8136C646.167 82.3362 645.958 89.7454 645.645 92.1455C645.541 93.5022 645.019 94.337 644.184 94.8588C643.14 95.4849 639.592 96.0067 633.748 96.3197V101.538C644.08 101.224 650.758 101.12 653.889 101.12Z" fill="black"/>
<path d="M719.528 62.1956C712.641 62.1956 707.841 61.9869 704.919 61.5695C704.71 54.5777 705.858 49.5687 708.467 46.5424C710.971 43.5161 714.206 42.0551 718.067 42.0551C721.824 42.0551 724.955 43.5161 727.251 46.3337C729.546 49.2556 730.694 54.369 730.486 61.5695C727.564 61.9869 723.911 62.1956 719.528 62.1956ZM746.348 88.0757C742.487 89.8497 739.356 90.9976 736.956 91.6238C734.556 92.2499 731.947 92.4586 729.129 92.4586C722.555 92.4586 717.128 90.3715 712.641 86.1973C708.154 82.0231 705.754 76.2836 705.336 69.0831H710.241C711.076 69.0831 711.806 69.0831 712.432 68.9787C713.058 68.9787 716.398 68.8744 722.555 68.8744C728.607 68.8744 733.512 68.6656 737.269 68.3526C738.417 68.3526 740.712 67.9352 744.156 67.4134C746.661 66.996 748.539 66.5785 749.791 66.1611C749.896 65.0132 749.896 63.761 749.896 62.5087C749.896 56.8735 749.061 52.0732 747.287 48.0033C745.513 44.0378 742.487 40.8028 738.208 38.194C733.929 35.5851 728.503 34.3328 721.824 34.3328C717.128 34.3328 713.058 35.0633 709.51 36.4199C707.632 37.1504 704.606 38.8201 700.431 41.3246C696.257 43.8291 693.648 45.6032 692.709 46.438C691.144 47.899 689.683 50.2992 688.535 53.5342C686.761 58.2301 685.926 63.5522 685.926 69.6048C685.926 73.6747 686.343 77.5358 687.283 80.9795C688.222 84.4233 689.578 87.5539 691.666 90.1628C693.648 92.7717 696.048 95.0675 698.657 96.8415C701.266 98.7199 704.501 100.077 708.258 101.12C712.015 102.164 716.293 102.685 721.198 102.685C725.268 102.685 729.025 102.268 732.155 101.538C736.434 100.39 740.608 98.7199 744.678 96.4241L747.913 89.7454L746.348 88.0757Z" fill="black"/>
</g>
<defs>
<clipPath id="clip0">
<rect width="750" height="103.207" fill="white"/>
</clipPath>
</defs>
</svg>
