<svg width="250" height="35" viewBox="0 0 250 35" fill="none" xmlns="http://www.w3.org/2000/svg">
<g clip-path="url(#clip0)">
<path d="M28.3846 16.3837H29.0455V22.0189L28.9063 29.5673C28.9063 30.9239 29.4629 32.0718 30.5412 32.9762C31.6544 33.8806 33.1501 34.3328 35.0633 34.3328C35.5851 34.3328 36.1069 34.298 36.6286 34.1937C37.1504 34.1241 37.707 33.9502 38.3679 33.6719C38.9244 33.1501 39.5506 32.5588 40.2811 31.8631L41.1855 31.0282L40.8028 30.089C40.2811 30.1934 39.8288 30.263 39.5158 30.2978C39.1679 30.3325 38.7157 30.3325 38.1592 30.3325C37.22 30.3325 36.5243 30.1238 36.0373 29.7412C35.5503 29.3238 35.272 28.7672 35.2024 28.0715C35.1677 27.6541 35.1329 26.2627 35.1329 23.8973V16.3142H37.533L39.968 16.349C40.1419 16.349 40.3158 16.349 40.5245 16.3142L40.942 13.2183C39.8288 13.3574 38.1592 13.4618 35.9677 13.4618H35.1329L35.3416 9.46152L35.5155 6.81786L35.759 4.45248L35.0981 4.00027C33.0806 4.8699 32.037 5.32211 31.9674 5.35689C31.4804 5.53082 30.4369 5.84388 28.8368 6.33087C28.9759 7.93098 29.0455 9.2876 29.0455 10.4007V13.4618C28.7324 13.7053 28.3846 13.914 28.0019 14.1227L25.7757 15.4098V16.4533C26.6105 16.3837 27.4802 16.3837 28.3846 16.3837Z" fill="black"/>
<path d="M22.9233 6.15695C23.0277 5.21775 23.2016 4.24377 23.4451 3.23501L23.2364 2.67844C22.0189 2.15667 20.5927 1.73925 18.9578 1.46097C17.3229 1.18269 15.6185 1.04355 13.8792 1.04355C12.2095 1.04355 10.5399 1.21747 8.93975 1.56532C7.30486 1.87839 5.87867 2.43495 4.62641 3.23501C3.33936 4.03506 2.3306 5.14818 1.56533 6.57437C0.800056 8.00055 0.41742 9.60067 0.41742 11.3051C0.41742 12.5226 0.62613 13.6705 1.07834 14.7141C1.49576 15.7576 2.15667 16.662 3.0263 17.4273C3.89592 18.1578 5.04383 18.7491 6.47002 19.1318C7.40921 19.3753 9.39196 19.8275 12.3835 20.384C14.4706 20.8362 15.9315 21.2537 16.7316 21.6711C17.5664 22.0885 18.1578 22.6451 18.5404 23.306C18.9231 24.0017 19.1318 24.8017 19.1318 25.7757C19.1318 26.9236 18.8535 27.9324 18.2969 28.8368C17.7404 29.7412 16.836 30.4369 15.6185 30.9587C14.401 31.4804 12.9748 31.7239 11.4095 31.7239C9.60067 31.7239 7.93099 31.3761 6.43523 30.6456C4.90469 29.9151 3.82635 29.0803 3.20022 28.1411C2.99151 26.5062 2.88716 25.1496 2.92194 24.0365H0.834841C0.765271 27.6193 0.521775 30.263 0 32.0022C1.91318 32.8719 3.65243 33.4632 5.21775 33.811C6.81787 34.1589 8.62669 34.3328 10.6442 34.3328C13.427 34.3328 15.7924 33.9502 17.7751 33.2197C19.0274 32.7675 20.2101 32.0718 21.3928 31.1674C22.5755 30.263 23.4799 29.2194 24.1408 28.1063C25.0104 26.6453 25.4626 24.9061 25.4626 22.9581C25.4626 21.845 25.3235 20.8362 24.9756 19.9666C24.6626 19.0622 24.2452 18.3317 23.793 17.7404C23.306 17.149 22.6451 16.6272 21.8102 16.175C20.9754 15.7228 19.897 15.3402 18.5752 15.0271C18.0534 14.9228 16.9403 14.7141 15.2358 14.4706C13.5314 14.1923 12.2095 13.9836 11.2356 13.7749C9.9833 13.4618 9.04411 13.1487 8.38319 12.7661C7.72228 12.3835 7.23529 11.8965 6.88743 11.2703C6.53958 10.6442 6.36566 9.84416 6.33088 8.8354C6.33088 7.44399 6.95701 6.19173 8.17448 5.14818C9.39196 4.10463 11.1312 3.58286 13.3922 3.58286C14.9576 3.58286 16.3837 3.82635 17.636 4.34813C18.8883 4.8699 19.7927 5.46125 20.2797 6.12216C20.4188 6.85265 20.4884 8.10491 20.5232 9.87895H22.6103C22.7146 8.3484 22.819 7.09614 22.9233 6.15695Z" fill="black"/>
<path d="M44.9075 15.7228C45.1858 15.8272 45.3945 16.0011 45.4988 16.2098C45.638 16.4185 45.6728 16.9751 45.6728 17.8447L45.7075 22.6451C45.7075 23.8625 45.7075 24.8713 45.6728 25.6714C45.6032 27.1323 45.5684 27.9672 45.5684 28.2107C45.5684 30.0891 46.1945 31.5848 47.4816 32.6979C48.7686 33.8111 50.5079 34.4024 52.7341 34.4024C53.882 34.4024 55.0299 34.2285 56.1778 33.8458L58.9954 31.4109C59.4824 31.0283 60.039 30.576 60.6999 30.0891C60.6999 30.9587 60.6999 31.55 60.6651 31.8631L60.526 33.6371L60.6999 33.8111L65.3959 33.7067L70.5093 33.8111V31.9675C68.8048 31.8979 67.7612 31.7935 67.4482 31.6196C67.2743 31.5152 67.1351 31.3065 67.0655 31.063C66.9264 30.4021 66.8568 28.6977 66.8568 25.9149V21.1841C66.8568 20.8362 66.9264 19.1666 67.0655 16.175L67.3438 11.9661L66.8568 11.7226C64.6306 12.3835 63.0653 12.8009 62.1609 13.0096C61.2217 13.1835 59.4824 13.427 56.9431 13.7401V15.4793C58.7171 15.5837 59.7259 15.6533 59.9694 15.7228C60.2129 15.7924 60.3868 15.8968 60.4564 16.0359C60.5955 16.2446 60.6651 16.8707 60.6651 17.9143L60.6999 21.1493V25.0452C60.6999 26.2975 60.5955 27.0975 60.3868 27.515C60.0738 28.1063 59.5172 28.6977 58.6824 29.289C57.8823 29.8803 56.8735 30.1586 55.6908 30.1586C54.6473 30.1586 53.8124 29.9151 53.1863 29.4281C52.5602 28.9412 52.1776 28.2107 52.0036 27.2715C51.8993 26.541 51.8297 25.08 51.8297 22.9233V20.3493C51.8297 17.7752 51.9688 14.9924 52.2123 12.0008L51.8645 11.7573C49.6035 12.453 47.7599 12.9748 46.3337 13.2531C44.9075 13.5314 43.4465 13.7053 42.0203 13.7749V15.5141C43.69 15.5489 44.6292 15.6185 44.9075 15.7228Z" fill="black"/>
<path d="M87.1713 21.6015C87.1713 24.6278 87.1017 26.4366 86.9278 27.028C86.7539 27.6193 86.1973 28.2454 85.2929 28.8716C84.3885 29.4977 83.3102 29.8456 82.0927 29.8456C80.4926 29.8456 79.2055 29.289 78.2316 28.1759C76.9445 26.6801 76.3184 24.5234 76.3184 21.7406C76.3184 20.2449 76.4923 18.9231 76.8402 17.7751C77.188 16.6272 77.7446 15.7924 78.4403 15.3054C79.1708 14.7836 80.0752 14.5401 81.2231 14.5401C82.5101 14.5401 83.7276 14.8184 84.8059 15.4098C85.3973 15.7228 86.1278 16.3837 87.0322 17.3577L87.1713 21.6015ZM94.1631 31.7239C93.8848 31.6196 93.7109 31.4804 93.6065 31.3065C93.5022 31.1326 93.3978 30.6108 93.363 29.7412C93.2935 28.5237 93.2239 27.4106 93.2239 26.3671V24.2452C93.2239 17.0794 93.2587 11.5138 93.2935 7.54835C93.2935 6.81787 93.3978 4.4177 93.6065 0.34785L92.9456 0C89.9541 1.00877 86.6843 1.66968 83.171 2.01753V3.722C84.9799 3.75678 85.9886 3.82635 86.2321 3.86114C86.4408 3.89592 86.6148 4.00028 86.7191 4.1742C86.8583 4.38291 86.9626 4.8699 86.9974 5.66996C87.067 7.30486 87.1365 8.69626 87.1365 9.87895C87.1365 10.8529 87.1017 11.7921 87.067 12.6965C85.7799 12.2443 84.9103 11.966 84.3885 11.8617C83.8667 11.7573 83.2058 11.6878 82.4058 11.6878C81.1187 11.6878 80.11 11.8269 79.3099 12.1052C78.5099 12.3835 77.188 13.114 75.3444 14.2966C73.5008 15.4793 72.3877 16.2794 72.0051 16.7316C71.4833 17.3229 71.0311 18.123 70.6137 19.2013C70.0919 20.5927 69.8136 22.1928 69.8136 23.9669C69.8136 27.1671 70.718 29.7064 72.5268 31.55C74.3357 33.3936 76.5967 34.3328 79.3447 34.3328C80.3882 34.3328 81.2231 34.2285 81.8492 33.985C82.371 33.6719 82.8928 33.2893 83.4145 32.8371C84.7712 31.7239 86.0234 30.75 87.1365 29.8803L87.1017 31.7587L86.9626 33.5676L87.1713 33.7415L91.6586 33.6719L96.8763 33.7415V32.0022C95.311 31.8979 94.4414 31.7935 94.1631 31.7239Z" fill="black"/>
<path d="M107.242 20.7319C104.946 20.7319 103.346 20.6623 102.372 20.5232C102.303 18.1926 102.685 16.5229 103.555 15.5141C104.39 14.5054 105.468 14.0184 106.755 14.0184C108.007 14.0184 109.051 14.5054 109.816 15.4446C110.582 16.4185 110.964 18.123 110.895 20.5232C109.921 20.6623 108.703 20.7319 107.242 20.7319ZM116.182 29.3586C114.895 29.9499 113.851 30.3325 113.051 30.5413C112.251 30.7152 111.382 30.8195 110.442 30.8195C108.251 30.8195 106.442 30.1238 104.946 28.7324C103.451 27.341 102.651 25.4279 102.511 23.0277H104.146C104.425 23.0277 104.633 23.0277 104.877 22.9929C105.086 22.9929 106.199 22.9581 108.251 22.9581C110.269 22.9581 111.903 22.8885 113.156 22.7842C113.538 22.7842 114.304 22.6451 115.451 22.4711C116.286 22.332 116.912 22.1928 117.33 22.0537C117.365 21.6711 117.365 21.2537 117.365 20.8362C117.365 18.9578 117.086 17.3577 116.495 16.0011C115.904 14.6793 114.895 13.6009 113.469 12.7313C112.043 11.8617 110.234 11.4443 108.007 11.4443C106.442 11.4443 105.086 11.6878 103.903 12.14C103.277 12.3835 102.268 12.94 100.877 13.7749C99.4852 14.6097 98.6155 15.2011 98.3025 15.4793C97.7807 15.9663 97.2937 16.7664 96.9111 17.8447C96.3197 19.41 96.0414 21.1841 96.0414 23.2016C96.0414 24.5582 96.1806 25.8453 96.4936 26.9932C96.8067 28.1411 97.2589 29.1846 97.9546 30.0543C98.6155 30.9239 99.4156 31.6892 100.285 32.2805C101.155 32.8719 102.233 33.3588 103.485 33.7067C104.738 34.0545 106.164 34.2285 107.799 34.2285C109.155 34.2285 110.408 34.0893 111.451 33.8458C112.877 33.4632 114.269 32.9066 115.625 32.1414L116.704 29.9151L116.182 29.3586Z" fill="black"/>
<path d="M145.436 31.9674C144.671 31.9326 144.184 31.8283 143.94 31.6196C143.732 31.4457 143.558 31.063 143.488 30.4369C143.419 29.8108 143.384 28.2454 143.349 25.6366L143.314 23.2712C143.314 23.0277 143.314 22.7842 143.349 22.6103C143.384 22.1233 143.384 21.0449 143.384 19.2709C143.384 17.7404 143.245 16.5924 143.001 15.862C142.758 15.1315 142.34 14.4358 141.714 13.7749C141.088 13.1139 140.358 12.5922 139.488 12.2443C138.618 11.8617 137.262 11.6878 135.522 11.6878C134.862 11.6878 134.34 11.7225 133.957 11.7921C133.575 11.8617 133.122 12.0008 132.566 12.1748L128.044 15.5141V11.8617L127.383 11.5834C126.2 12.0704 125.122 12.453 124.183 12.6965C123.243 12.94 121.261 13.2879 118.269 13.7401V15.5141C119.834 15.5489 120.774 15.6185 121.087 15.7576C121.295 15.8272 121.435 15.8967 121.539 16.0359C121.643 16.175 121.713 16.7316 121.748 17.6708C121.817 19.584 121.887 21.2536 121.887 22.5755V25.567C121.887 26.541 121.887 27.2019 121.852 27.6541L121.748 29.6716C121.748 30.4717 121.643 31.0282 121.469 31.3065C121.365 31.4804 121.191 31.6196 120.948 31.6891C120.461 31.8631 119.556 31.9326 118.269 31.9326V33.7067C119.939 33.6371 122.269 33.6023 125.296 33.6023C127.905 33.6023 130.096 33.6371 131.905 33.7067V31.9326C130.722 31.8283 130.026 31.7935 129.853 31.7587C129.261 31.6544 128.879 31.55 128.705 31.4109C128.565 31.3413 128.461 31.2022 128.392 31.063C128.287 30.8195 128.218 30.3673 128.183 29.6368C128.113 28.0367 128.044 26.6801 128.044 25.567V21.7406C128.044 19.6187 128.078 18.4013 128.183 18.0882C128.392 17.5664 128.844 17.0447 129.609 16.5577C130.374 16.0359 131.313 15.7924 132.496 15.7924C133.644 15.7924 134.583 16.0359 135.279 16.5577C135.975 17.0794 136.427 17.7404 136.67 18.5752C136.879 19.41 137.018 21.1493 137.018 23.8277V25.6366L136.879 29.3933C136.705 31.7239 136.601 33.011 136.566 33.3588L137.018 33.7763C138.236 33.6719 139.662 33.6023 141.297 33.6023C142.723 33.6023 144.567 33.6719 146.828 33.7763V32.0718C146.201 32.0022 145.714 31.9674 145.436 31.9674Z" fill="black"/>
<path d="M148.254 16.3142H148.915V21.9493L148.776 29.4977C148.776 30.8543 149.332 32.0022 150.41 32.9066C151.524 33.811 153.019 34.2632 154.932 34.2632C155.454 34.2632 155.976 34.2285 156.498 34.1241C157.02 34.0545 157.576 33.8806 158.237 33.6023C158.794 33.0806 159.42 32.4892 160.15 31.7935L161.055 30.9587L160.672 30.0195C160.15 30.1238 159.698 30.1934 159.385 30.2282C159.037 30.263 158.585 30.263 158.028 30.263C157.089 30.263 156.393 30.0543 155.906 29.6716C155.419 29.2542 155.141 28.6976 155.072 28.0019C155.037 27.5845 155.002 26.1931 155.002 23.8277V16.2446H157.402L159.837 16.2794C160.011 16.2794 160.185 16.2794 160.394 16.2446L160.811 13.1487C159.698 13.2879 158.028 13.3922 155.837 13.3922H155.002L155.211 9.39194L155.385 6.74828L155.628 4.3829L154.967 3.93069C152.95 4.80032 151.906 5.25253 151.837 5.28731C151.35 5.46124 150.306 5.7743 148.706 6.26129C148.845 7.8614 148.915 9.21802 148.915 10.3311V13.3922C148.567 13.6357 148.254 13.8444 147.871 14.0531L145.645 15.3402V16.3837C146.48 16.349 147.349 16.3142 148.254 16.3142Z" fill="black"/>
<path d="M177.682 33.5676C178.76 33.5676 180.673 33.6024 183.387 33.6719C186.97 33.7415 188.918 33.7763 189.196 33.7763C191.318 33.7763 192.883 33.7415 193.892 33.6719C194.379 33.6371 194.866 33.5328 195.318 33.4284C195.318 33.1501 195.422 32.2805 195.527 30.8196L196.153 26.1931C196.153 26.1236 196.188 25.8801 196.222 25.4279H194.17C193.857 26.9236 193.544 28.2455 193.196 29.3934C193.057 29.8456 192.918 30.1239 192.779 30.2282C192.64 30.3326 192.257 30.4369 191.561 30.5413C189.683 30.8196 187.491 30.9587 184.987 30.9587C184.152 30.9587 182.621 30.8891 180.326 30.7848C180.326 30.3326 180.291 29.0455 180.291 26.8888C180.291 24.767 180.256 22.6103 180.256 20.4188C180.256 16.2794 180.221 14.088 180.221 13.8097C180.221 11.2704 180.256 9.14848 180.326 7.4788C180.395 5.80912 180.465 4.86992 180.569 4.66121C180.639 4.4525 180.778 4.31336 180.952 4.20901C181.369 4.00029 182.517 3.86115 184.361 3.79158V1.80884C181.682 1.91319 178.83 1.98276 175.804 1.98276C173.125 1.98276 170.725 1.91319 168.603 1.80884V3.82637C170.76 3.89594 172.047 4.06986 172.429 4.27858C172.603 4.38293 172.742 4.52207 172.812 4.696C172.951 5.11342 173.056 6.74831 173.125 9.60068C173.16 10.7138 173.16 13.7053 173.16 18.5057C173.16 21.7754 173.125 24.593 173.056 26.9236C172.986 29.2542 172.916 30.6108 172.847 30.9935C172.847 31.0978 172.777 31.1674 172.708 31.237C172.603 31.3761 172.395 31.5153 172.047 31.6892C171.281 32.1066 170.655 32.4197 170.238 32.5936V33.7763C173.612 33.6371 176.082 33.5676 177.682 33.5676Z" fill="black"/>
<path d="M202.797 33.6719C205.545 33.6719 208.119 33.7067 210.449 33.7763V32.0022C208.745 31.9327 207.667 31.8283 207.214 31.6196C207.006 31.5152 206.867 31.3413 206.832 31.063C206.693 30.576 206.623 29.0107 206.623 26.3671V18.5752C206.623 16.4881 206.727 14.2619 206.936 11.8965L206.345 11.5834C204.849 12.14 203.458 12.5574 202.171 12.8357C200.884 13.114 199.005 13.3575 196.535 13.6009V15.3402C198.449 15.3402 199.562 15.4793 199.91 15.6533C200.049 15.7576 200.153 15.9315 200.223 16.2446C200.362 16.9055 200.431 19.6188 200.431 24.3843C200.431 27.8628 200.362 30.0195 200.188 30.8543C200.118 31.237 199.944 31.5152 199.701 31.6544C199.423 31.7935 198.379 31.9327 196.535 32.0718V33.7763C198.344 33.7067 200.431 33.6719 202.797 33.6719ZM200.64 1.70447C199.91 2.40017 199.527 3.20023 199.527 4.17421C199.527 5.14819 199.91 5.98303 200.64 6.67873C201.371 7.37443 202.275 7.72228 203.318 7.72228C204.362 7.72228 205.266 7.37443 205.997 6.67873C206.727 5.98303 207.11 5.14819 207.11 4.17421C207.11 3.20023 206.727 2.40017 205.997 1.70447C205.266 1.00877 204.362 0.660919 203.318 0.660919C202.275 0.695704 201.371 1.00877 200.64 1.70447Z" fill="black"/>
<path d="M217.963 33.7067L226.416 33.811V32.0718C224.259 31.9327 223.146 31.8283 223.042 31.8283C222.659 31.7587 222.346 31.6544 222.172 31.5152C221.998 31.3761 221.859 31.2022 221.789 30.9935C221.685 30.6804 221.615 29.8108 221.581 28.315C221.546 26.8193 221.511 25.2887 221.511 23.6538V16.349C222.937 16.3142 223.807 16.2794 224.12 16.2794C224.224 16.2794 224.642 16.2794 225.372 16.3142L227.877 16.349L228.259 14.3314C228.294 14.0532 228.364 13.7749 228.468 13.5314L228.155 13.2879C227.112 13.3575 225.894 13.3922 224.468 13.427L221.546 13.4618V10.2964C221.546 7.86142 221.65 6.33087 221.859 5.73953C221.998 5.32211 222.242 5.00904 222.659 4.76555C223.216 4.4177 223.981 4.27856 224.955 4.27856C225.616 4.27856 226.172 4.34813 226.59 4.52205C227.007 4.69598 227.494 4.97426 227.981 5.39168L228.99 4.97426C228.955 3.58286 229.059 2.05232 229.338 0.41742C228.329 0.13914 227.494 0 226.659 0C225.859 0 225.164 0.104355 224.537 0.34785C223.911 0.55656 223.355 0.869626 222.868 1.25226L219.876 3.722C217.998 5.21775 216.815 6.29609 216.259 6.95701C215.911 7.37443 215.702 7.79185 215.528 8.24405C215.354 8.69626 215.285 9.42674 215.18 10.5051C215.111 11.5486 215.076 12.453 215.076 13.1835C215.076 13.427 214.972 13.6009 214.763 13.7401C214.693 13.8097 213.545 14.3662 211.354 15.4098V16.5229L214.728 16.3837L215.424 16.4185V23.2712C215.389 27.4454 215.319 29.9151 215.215 30.7152C215.18 31.1674 215.006 31.4457 214.728 31.6196C214.38 31.8283 213.197 32.0022 211.25 32.1066V33.8458C214.693 33.7415 216.919 33.7067 217.963 33.7067Z" fill="black"/>
<path d="M239.843 20.7319C237.547 20.7319 235.947 20.6623 234.973 20.5232C234.903 18.1926 235.286 16.5229 236.156 15.5141C236.99 14.5054 238.069 14.0184 239.356 14.0184C240.608 14.0184 241.652 14.5054 242.417 15.4446C243.182 16.4185 243.565 18.123 243.495 20.5232C242.521 20.6623 241.304 20.7319 239.843 20.7319ZM248.783 29.3586C247.495 29.9499 246.452 30.3325 245.652 30.5413C244.852 30.75 243.982 30.8195 243.043 30.8195C240.852 30.8195 239.043 30.1238 237.547 28.7324C236.051 27.341 235.251 25.4279 235.112 23.0277H236.747C237.025 23.0277 237.269 23.0277 237.477 22.9929C237.686 22.9929 238.799 22.9581 240.852 22.9581C242.869 22.9581 244.504 22.8885 245.756 22.7842C246.139 22.7842 246.904 22.6451 248.052 22.4711C248.887 22.332 249.513 22.1928 249.93 22.0537C249.965 21.6711 249.965 21.2537 249.965 20.8362C249.965 18.9578 249.687 17.3577 249.096 16.0011C248.504 14.6793 247.495 13.6009 246.069 12.7313C244.643 11.8617 242.834 11.4443 240.608 11.4443C239.043 11.4443 237.686 11.6878 236.503 12.14C235.877 12.3835 234.869 12.94 233.477 13.7749C232.086 14.6097 231.216 15.2011 230.903 15.4793C230.381 15.9663 229.894 16.7664 229.512 17.8447C228.92 19.41 228.642 21.1841 228.642 23.2016C228.642 24.5582 228.781 25.8453 229.094 26.9932C229.407 28.1411 229.859 29.1846 230.555 30.0543C231.216 30.9239 232.016 31.6892 232.886 32.2805C233.755 32.9066 234.834 33.3588 236.086 33.7067C237.338 34.0545 238.764 34.2285 240.399 34.2285C241.756 34.2285 243.008 34.0893 244.052 33.8458C245.478 33.4632 246.869 32.9066 248.226 32.1414L249.304 29.9151L248.783 29.3586Z" fill="black"/>
</g>
<defs>
<clipPath id="clip0">
<rect width="250" height="34.4024" fill="white"/>
</clipPath>
</defs>
</svg>
