<svg width="60" height="60" viewBox="0 0 60 60" fill="none" xmlns="http://www.w3.org/2000/svg">
<path d="M59.1075 12.3425C57.02 13.2675 54.7775 13.8925 52.42 14.175C54.825 12.735 56.67 10.45 57.54 7.73004C55.29 9.06504 52.7975 10.035 50.145 10.555C48.02 8.29504 44.995 6.88004 41.645 6.88004C35.215 6.88004 30 12.095 30 18.53C30 19.44 30.105 20.325 30.3 21.18C20.6175 20.6925 12.04 16.055 6.295 9.01004C5.295 10.735 4.72 12.735 4.72 14.865C4.72 18.905 6.7775 22.4725 9.9 24.56C7.99 24.4975 6.195 23.975 4.625 23.1025V23.2525C4.625 28.895 8.6375 33.6025 13.9675 34.6725C12.9875 34.9375 11.96 35.0775 10.9 35.0775C10.15 35.0775 9.4175 35.0075 8.7075 34.8725C10.19 39.4975 14.49 42.8675 19.5875 42.9575C15.6 46.0825 10.5775 47.945 5.1225 47.945C4.1825 47.945 3.255 47.89 2.3425 47.7825C7.4975 51.09 13.6175 53.015 20.1925 53.015C41.6175 53.015 53.33 35.27 53.33 19.88C53.33 19.38 53.3175 18.875 53.295 18.375C55.57 16.73 57.545 14.6825 59.1025 12.35L59.1075 12.3425Z" fill="black"/>
</svg>
