<svg width="60" height="48" viewBox="0 0 60 48" fill="none" xmlns="http://www.w3.org/2000/svg">
<path d="M54 0H6C2.68629 0 0 2.68629 0 6V42C0 45.3137 2.68629 48 6 48H54C57.3137 48 60 45.3137 60 42V6C60 2.68629 57.3137 0 54 0Z" fill="black"/>
<path fill-rule="evenodd" clip-rule="evenodd" d="M20.1739 23.7509C20.509 20.6427 22.8938 18.5556 26.6917 17.0288C28.9426 16.1239 27.8814 14.373 24.1225 15.2293C22.447 15.611 15.4098 17.9558 15.0188 25.4263C14.7061 31.4028 18.3662 33.4017 20.1849 33.9858C20.8566 34.2015 21.8586 34.3032 22.6063 34.2825C25.4676 34.2735 27.7844 31.86 27.7844 28.8841C27.7844 25.9026 25.4589 23.4857 22.5903 23.4857C21.7477 23.4857 20.9519 23.6942 20.2482 24.0643C20.222 23.9571 20.1972 23.8525 20.1739 23.7509Z" fill="white"/>
<path fill-rule="evenodd" clip-rule="evenodd" d="M37.3095 23.7509C37.6446 20.6427 40.0296 18.5556 43.8273 17.0288C46.0782 16.1239 45.0171 14.373 41.2581 15.2293C39.5826 15.611 32.5455 17.9558 32.1546 25.4263C31.8417 31.4028 35.502 33.4017 37.3206 33.9858C37.9923 34.2015 38.9943 34.3032 39.7419 34.2825C42.6033 34.2738 44.9202 31.86 44.9202 28.8841C44.9202 25.9026 42.5949 23.4857 39.7263 23.4857C38.8836 23.4857 38.0877 23.6942 37.3839 24.0644C37.3578 23.9571 37.3329 23.8525 37.3095 23.7509Z" fill="white"/>
</svg>
